<svg id="my-svg" width="100%" xmlns="http://www.w3.org/2000/svg" xmlns:xlink="http://www.w3.org/1999/xlink" class="erDiagram" style="max-width: 730.625px; background-color: white;" viewBox="0 0 730.625 1100.25" role="graphics-document document" aria-roledescription="er"><style>#my-svg{font-family:"trebuchet ms",verdana,arial,sans-serif;font-size:16px;fill:#333;}@keyframes edge-animation-frame{from{stroke-dashoffset:0;}}@keyframes dash{to{stroke-dashoffset:0;}}#my-svg .edge-animation-slow{stroke-dasharray:9,5!important;stroke-dashoffset:900;animation:dash 50s linear infinite;stroke-linecap:round;}#my-svg .edge-animation-fast{stroke-dasharray:9,5!important;stroke-dashoffset:900;animation:dash 20s linear infinite;stroke-linecap:round;}#my-svg .error-icon{fill:#552222;}#my-svg .error-text{fill:#552222;stroke:#552222;}#my-svg .edge-thickness-normal{stroke-width:1px;}#my-svg .edge-thickness-thick{stroke-width:3.5px;}#my-svg .edge-pattern-solid{stroke-dasharray:0;}#my-svg .edge-thickness-invisible{stroke-width:0;fill:none;}#my-svg .edge-pattern-dashed{stroke-dasharray:3;}#my-svg .edge-pattern-dotted{stroke-dasharray:2;}#my-svg .marker{fill:#333333;stroke:#333333;}#my-svg .marker.cross{stroke:#333333;}#my-svg svg{font-family:"trebuchet ms",verdana,arial,sans-serif;font-size:16px;}#my-svg p{margin:0;}#my-svg .entityBox{fill:#ECECFF;stroke:#9370DB;}#my-svg .relationshipLabelBox{fill:hsl(80, 100%, 96.2745098039%);opacity:0.7;background-color:hsl(80, 100%, 96.2745098039%);}#my-svg .relationshipLabelBox rect{opacity:0.5;}#my-svg .labelBkg{background-color:rgba(248.6666666666, 255, 235.9999999999, 0.5);}#my-svg .edgeLabel{background-color:rgba(232,232,232, 0.8);}#my-svg .edgeLabel .label rect{fill:rgba(232,232,232, 0.8);}#my-svg .edgeLabel .label text{fill:#333;}#my-svg .edgeLabel .label{fill:#9370DB;font-size:14px;}#my-svg .label{font-family:"trebuchet ms",verdana,arial,sans-serif;color:#333;}#my-svg .edge-pattern-dashed{stroke-dasharray:8,8;}#my-svg .node rect,#my-svg .node circle,#my-svg .node ellipse,#my-svg .node polygon{fill:#ECECFF;stroke:#9370DB;stroke-width:1px;}#my-svg .relationshipLine{stroke:#333333;stroke-width:1px;fill:none;}#my-svg .marker{fill:none!important;stroke:#333333!important;stroke-width:1;}#my-svg [data-look=neo].labelBkg{background-color:rgba(248.6666666666, 255, 235.9999999999, 0.5);}#my-svg .node .neo-node{stroke:#9370DB;}#my-svg [data-look="neo"].node rect,#my-svg [data-look="neo"].cluster rect,#my-svg [data-look="neo"].node polygon{stroke:#9370DB;filter:drop-shadow(1px 2px 2px rgba(185, 185, 185, 1));}#my-svg [data-look="neo"].node path{stroke:#9370DB;stroke-width:1px;}#my-svg [data-look="neo"].node .outer-path{filter:drop-shadow(1px 2px 2px rgba(185, 185, 185, 1));}#my-svg [data-look="neo"].node .neo-line path{stroke:#9370DB;filter:none;}#my-svg [data-look="neo"].node circle{stroke:#9370DB;filter:drop-shadow(1px 2px 2px rgba(185, 185, 185, 1));}#my-svg [data-look="neo"].node circle .state-start{fill:#000000;}#my-svg [data-look="neo"].icon-shape .icon{fill:#9370DB;filter:drop-shadow(1px 2px 2px rgba(185, 185, 185, 1));}#my-svg [data-look="neo"].icon-shape .icon-neo path{stroke:#9370DB;filter:drop-shadow(1px 2px 2px rgba(185, 185, 185, 1));}#my-svg :root{--mermaid-font-family:"trebuchet ms",verdana,arial,sans-serif;}</style><g><defs><marker id="my-svg_er-onlyOneStart" class="marker onlyOne er" refX="0" refY="9" markerWidth="18" markerHeight="18" orient="auto"><path d="M9,0 L9,18 M15,0 L15,18"/></marker></defs><defs><marker id="my-svg_er-onlyOneEnd" class="marker onlyOne er" refX="18" refY="9" markerWidth="18" markerHeight="18" orient="auto"><path d="M3,0 L3,18 M9,0 L9,18"/></marker></defs><defs><marker id="my-svg_er-zeroOrOneStart" class="marker zeroOrOne er" refX="0" refY="9" markerWidth="30" markerHeight="18" orient="auto"><circle fill="white" cx="21" cy="9" r="6"/><path d="M9,0 L9,18"/></marker></defs><defs><marker id="my-svg_er-zeroOrOneEnd" class="marker zeroOrOne er" refX="30" refY="9" markerWidth="30" markerHeight="18" orient="auto"><circle fill="white" cx="9" cy="9" r="6"/><path d="M21,0 L21,18"/></marker></defs><defs><marker id="my-svg_er-oneOrMoreStart" class="marker oneOrMore er" refX="18" refY="18" markerWidth="45" markerHeight="36" orient="auto"><path d="M0,18 Q 18,0 36,18 Q 18,36 0,18 M42,9 L42,27"/></marker></defs><defs><marker id="my-svg_er-oneOrMoreEnd" class="marker oneOrMore er" refX="27" refY="18" markerWidth="45" markerHeight="36" orient="auto"><path d="M3,9 L3,27 M9,18 Q27,0 45,18 Q27,36 9,18"/></marker></defs><defs><marker id="my-svg_er-zeroOrMoreStart" class="marker zeroOrMore er" refX="18" refY="18" markerWidth="57" markerHeight="36" orient="auto"><circle fill="white" cx="48" cy="18" r="6"/><path d="M0,18 Q18,0 36,18 Q18,36 0,18"/></marker></defs><defs><marker id="my-svg_er-zeroOrMoreEnd" class="marker zeroOrMore er" refX="39" refY="18" markerWidth="57" markerHeight="36" orient="auto"><circle fill="white" cx="9" cy="18" r="6"/><path d="M21,18 Q39,0 57,18 Q39,36 21,18"/></marker></defs><g class="root"><g class="clusters"/><g class="edgePaths"><path d="M150.492,585.125L150.492,618.479C150.492,651.833,150.492,718.542,150.492,760.313C150.492,802.083,150.492,818.917,150.492,827.333L150.492,835.75" id="my-svg-id_entity-INGESTION_BATCHES-0_entity-ALARM_REJECTIONS-1_0" class="edge-thickness-normal edge-pattern-solid relationshipLine" style="undefined;;;undefined" data-edge="true" data-et="edge" data-id="id_entity-INGESTION_BATCHES-0_entity-ALARM_REJECTIONS-1_0" data-points="W3sieCI6MTUwLjQ5MjE4NzUsInkiOjU4NS4xMjV9LHsieCI6MTUwLjQ5MjE4NzUsInkiOjc4NS4yNX0seyJ4IjoxNTAuNDkyMTg3NSwieSI6ODM1Ljc1fV0=" data-look="classic" marker-start="url(#my-svg_er-onlyOneStart)" marker-end="url(#my-svg_er-zeroOrMoreEnd)"/></g><g class="edgeLabels"><g class="edgeLabel" transform="translate(150.4921875, 785.25)"><g class="label" data-id="id_entity-INGESTION_BATCHES-0_entity-ALARM_REJECTIONS-1_0" transform="translate(-24.0625, -10.5)"><foreignObject width="48.125" height="21"><div xmlns="http://www.w3.org/1999/xhtml" class="labelBkg" style="display: table-cell; white-space: nowrap; line-height: 1.5; max-width: 200px; text-align: center;"><span class="edgeLabel"><p>registra</p></span></div></foreignObject></g></g></g><g class="nodes"><g class="node default" id="my-svg-entity-INGESTION_BATCHES-0" data-look="classic" transform="translate(150.4921875, 371.375)"><g class="outer-path" style=""><path d="M-142.4921875 -213.75 L142.4921875 -213.75 L142.4921875 213.75 L-142.4921875 213.75" stroke="none" stroke-width="0" fill="#ECECFF"/><path d="M-142.4921875 -213.75 C-66.71433500652292 -213.75, 9.063517486954169 -213.75, 142.4921875 -213.75 M-142.4921875 -213.75 C-84.00545906557753 -213.75, -25.518730631155037 -213.75, 142.4921875 -213.75 M142.4921875 -213.75 C142.4921875 -112.85385029936245, 142.4921875 -11.957700598724898, 142.4921875 213.75 M142.4921875 -213.75 C142.4921875 -91.50433877818215, 142.4921875 30.74132244363571, 142.4921875 213.75 M142.4921875 213.75 C41.18549499387943 213.75, -60.12119751224114 213.75, -142.4921875 213.75 M142.4921875 213.75 C65.90063737322923 213.75, -10.69091275354154 213.75, -142.4921875 213.75 M-142.4921875 213.75 C-142.4921875 100.24200962352997, -142.4921875 -13.265980752940067, -142.4921875 -213.75 M-142.4921875 213.75 C-142.4921875 105.59781407095446, -142.4921875 -2.5543718580910877, -142.4921875 -213.75" stroke="#9370DB" stroke-width="1.3" fill="none" stroke-dasharray="0 0"/></g><g style="" class="row-rect-odd"><path d="M-142.4921875 -171 L142.4921875 -171 L142.4921875 -128.25 L-142.4921875 -128.25" stroke="none" stroke-width="0" fill="hsl(240, 100%, 100%)"/><path d="M-142.4921875 -171 C-84.73869105664016 -171, -26.985194613280314 -171, 142.4921875 -171 M-142.4921875 -171 C-40.80097625198394 -171, 60.89023499603212 -171, 142.4921875 -171 M142.4921875 -171 C142.4921875 -155.8745195050041, 142.4921875 -140.7490390100082, 142.4921875 -128.25 M142.4921875 -171 C142.4921875 -161.46424016543577, 142.4921875 -151.9284803308715, 142.4921875 -128.25 M142.4921875 -128.25 C38.74939123195615 -128.25, -64.9934050360877 -128.25, -142.4921875 -128.25 M142.4921875 -128.25 C48.78203725228711 -128.25, -44.92811299542578 -128.25, -142.4921875 -128.25 M-142.4921875 -128.25 C-142.4921875 -139.9106259936385, -142.4921875 -151.57125198727698, -142.4921875 -171 M-142.4921875 -128.25 C-142.4921875 -137.11233191364892, -142.4921875 -145.97466382729783, -142.4921875 -171" stroke="#9370DB" stroke-width="1.3" fill="none" stroke-dasharray="0 0"/></g><g style="" class="row-rect-even"><path d="M-142.4921875 -128.25 L142.4921875 -128.25 L142.4921875 -85.5 L-142.4921875 -85.5" stroke="none" stroke-width="0" fill="hsl(240, 100%, 97.2745098039%)"/><path d="M-142.4921875 -128.25 C-37.6377996124762 -128.25, 67.2165882750476 -128.25, 142.4921875 -128.25 M-142.4921875 -128.25 C-42.96212473015801 -128.25, 56.56793803968398 -128.25, 142.4921875 -128.25 M142.4921875 -128.25 C142.4921875 -113.55736710602477, 142.4921875 -98.86473421204956, 142.4921875 -85.5 M142.4921875 -128.25 C142.4921875 -112.09544744770201, 142.4921875 -95.94089489540401, 142.4921875 -85.5 M142.4921875 -85.5 C49.682494318483265 -85.5, -43.12719886303347 -85.5, -142.4921875 -85.5 M142.4921875 -85.5 C81.71275755506244 -85.5, 20.93332761012489 -85.5, -142.4921875 -85.5 M-142.4921875 -85.5 C-142.4921875 -94.57948658536309, -142.4921875 -103.65897317072617, -142.4921875 -128.25 M-142.4921875 -85.5 C-142.4921875 -101.20980094916736, -142.4921875 -116.9196018983347, -142.4921875 -128.25" stroke="#9370DB" stroke-width="1.3" fill="none" stroke-dasharray="0 0"/></g><g style="" class="row-rect-odd"><path d="M-142.4921875 -85.5 L142.4921875 -85.5 L142.4921875 -42.75 L-142.4921875 -42.75" stroke="none" stroke-width="0" fill="hsl(240, 100%, 100%)"/><path d="M-142.4921875 -85.5 C-39.249162336397234 -85.5, 63.99386282720553 -85.5, 142.4921875 -85.5 M-142.4921875 -85.5 C-52.43398178915906 -85.5, 37.624223921681875 -85.5, 142.4921875 -85.5 M142.4921875 -85.5 C142.4921875 -72.42980206014369, 142.4921875 -59.35960412028736, 142.4921875 -42.75 M142.4921875 -85.5 C142.4921875 -68.86284696535873, 142.4921875 -52.22569393071745, 142.4921875 -42.75 M142.4921875 -42.75 C34.5159550267247 -42.75, -73.4602774465506 -42.75, -142.4921875 -42.75 M142.4921875 -42.75 C71.57442116503005 -42.75, 0.6566548300600914 -42.75, -142.4921875 -42.75 M-142.4921875 -42.75 C-142.4921875 -52.09690675953605, -142.4921875 -61.443813519072094, -142.4921875 -85.5 M-142.4921875 -42.75 C-142.4921875 -59.47017348586017, -142.4921875 -76.19034697172034, -142.4921875 -85.5" stroke="#9370DB" stroke-width="1.3" fill="none" stroke-dasharray="0 0"/></g><g style="" class="row-rect-even"><path d="M-142.4921875 -42.75 L142.4921875 -42.75 L142.4921875 0 L-142.4921875 0" stroke="none" stroke-width="0" fill="hsl(240, 100%, 97.2745098039%)"/><path d="M-142.4921875 -42.75 C-75.51471035110472 -42.75, -8.53723320220945 -42.75, 142.4921875 -42.75 M-142.4921875 -42.75 C-39.144163812978164 -42.75, 64.20385987404367 -42.75, 142.4921875 -42.75 M142.4921875 -42.75 C142.4921875 -30.22798000765053, 142.4921875 -17.705960015301063, 142.4921875 0 M142.4921875 -42.75 C142.4921875 -29.872718929189983, 142.4921875 -16.995437858379965, 142.4921875 0 M142.4921875 0 C52.242382658110714 0, -38.00742218377857 0, -142.4921875 0 M142.4921875 0 C55.83820807232753 0, -30.815771355344936 0, -142.4921875 0 M-142.4921875 0 C-142.4921875 -9.634578497783977, -142.4921875 -19.269156995567954, -142.4921875 -42.75 M-142.4921875 0 C-142.4921875 -16.744799248164593, -142.4921875 -33.48959849632919, -142.4921875 -42.75" stroke="#9370DB" stroke-width="1.3" fill="none" stroke-dasharray="0 0"/></g><g style="" class="row-rect-odd"><path d="M-142.4921875 0 L142.4921875 0 L142.4921875 42.75 L-142.4921875 42.75" stroke="none" stroke-width="0" fill="hsl(240, 100%, 100%)"/><path d="M-142.4921875 0 C-64.93048943316582 0, 12.631208633668365 0, 142.4921875 0 M-142.4921875 0 C-61.601104118781706 0, 19.28997926243659 0, 142.4921875 0 M142.4921875 0 C142.4921875 10.260595593755756, 142.4921875 20.521191187511512, 142.4921875 42.75 M142.4921875 0 C142.4921875 9.167051711227202, 142.4921875 18.334103422454405, 142.4921875 42.75 M142.4921875 42.75 C83.62890500304124 42.75, 24.765622506082494 42.75, -142.4921875 42.75 M142.4921875 42.75 C57.562600804391195 42.75, -27.36698589121761 42.75, -142.4921875 42.75 M-142.4921875 42.75 C-142.4921875 32.12827629831172, -142.4921875 21.50655259662343, -142.4921875 0 M-142.4921875 42.75 C-142.4921875 33.04010658400739, -142.4921875 23.330213168014776, -142.4921875 0" stroke="#9370DB" stroke-width="1.3" fill="none" stroke-dasharray="0 0"/></g><g style="" class="row-rect-even"><path d="M-142.4921875 42.75 L142.4921875 42.75 L142.4921875 85.5 L-142.4921875 85.5" stroke="none" stroke-width="0" fill="hsl(240, 100%, 97.2745098039%)"/><path d="M-142.4921875 42.75 C-32.092155422684016 42.75, 78.30787665463197 42.75, 142.4921875 42.75 M-142.4921875 42.75 C-58.9199867951225 42.75, 24.652213909755005 42.75, 142.4921875 42.75 M142.4921875 42.75 C142.4921875 51.855007933561815, 142.4921875 60.96001586712363, 142.4921875 85.5 M142.4921875 42.75 C142.4921875 53.184415323716344, 142.4921875 63.61883064743269, 142.4921875 85.5 M142.4921875 85.5 C73.95115893920789 85.5, 5.410130378415772 85.5, -142.4921875 85.5 M142.4921875 85.5 C41.3202459817269 85.5, -59.8516955365462 85.5, -142.4921875 85.5 M-142.4921875 85.5 C-142.4921875 71.08278683110696, -142.4921875 56.665573662213916, -142.4921875 42.75 M-142.4921875 85.5 C-142.4921875 68.6014312196731, -142.4921875 51.7028624393462, -142.4921875 42.75" stroke="#9370DB" stroke-width="1.3" fill="none" stroke-dasharray="0 0"/></g><g style="" class="row-rect-odd"><path d="M-142.4921875 85.5 L142.4921875 85.5 L142.4921875 128.25 L-142.4921875 128.25" stroke="none" stroke-width="0" fill="hsl(240, 100%, 100%)"/><path d="M-142.4921875 85.5 C-53.94773824121951 85.5, 34.59671101756098 85.5, 142.4921875 85.5 M-142.4921875 85.5 C-58.72405985733528 85.5, 25.044067785329446 85.5, 142.4921875 85.5 M142.4921875 85.5 C142.4921875 98.18016884874419, 142.4921875 110.86033769748838, 142.4921875 128.25 M142.4921875 85.5 C142.4921875 95.7434258795875, 142.4921875 105.98685175917501, 142.4921875 128.25 M142.4921875 128.25 C85.31824888161816 128.25, 28.144310263236306 128.25, -142.4921875 128.25 M142.4921875 128.25 C51.241530267179755 128.25, -40.00912696564049 128.25, -142.4921875 128.25 M-142.4921875 128.25 C-142.4921875 113.77502580036091, -142.4921875 99.3000516007218, -142.4921875 85.5 M-142.4921875 128.25 C-142.4921875 114.34827170806994, -142.4921875 100.44654341613987, -142.4921875 85.5" stroke="#9370DB" stroke-width="1.3" fill="none" stroke-dasharray="0 0"/></g><g style="" class="row-rect-even"><path d="M-142.4921875 128.25 L142.4921875 128.25 L142.4921875 171 L-142.4921875 171" stroke="none" stroke-width="0" fill="hsl(240, 100%, 97.2745098039%)"/><path d="M-142.4921875 128.25 C-81.56924607346372 128.25, -20.64630464692742 128.25, 142.4921875 128.25 M-142.4921875 128.25 C-82.48293889063379 128.25, -22.473690281267594 128.25, 142.4921875 128.25 M142.4921875 128.25 C142.4921875 137.4378091043563, 142.4921875 146.62561820871258, 142.4921875 171 M142.4921875 128.25 C142.4921875 144.1577164277015, 142.4921875 160.065432855403, 142.4921875 171 M142.4921875 171 C52.37389760846176 171, -37.74439228307648 171, -142.4921875 171 M142.4921875 171 C84.20183078738685 171, 25.91147407477372 171, -142.4921875 171 M-142.4921875 171 C-142.4921875 153.90437198743547, -142.4921875 136.80874397487094, -142.4921875 128.25 M-142.4921875 171 C-142.4921875 161.0452075113815, -142.4921875 151.09041502276298, -142.4921875 128.25" stroke="#9370DB" stroke-width="1.3" fill="none" stroke-dasharray="0 0"/></g><g style="" class="row-rect-odd"><path d="M-142.4921875 171 L142.4921875 171 L142.4921875 213.75 L-142.4921875 213.75" stroke="none" stroke-width="0" fill="hsl(240, 100%, 100%)"/><path d="M-142.4921875 171 C-42.81855750150355 171, 56.8550724969929 171, 142.4921875 171 M-142.4921875 171 C-75.37417580609423 171, -8.256164112188458 171, 142.4921875 171 M142.4921875 171 C142.4921875 180.06001843940265, 142.4921875 189.12003687880534, 142.4921875 213.75 M142.4921875 171 C142.4921875 183.58678563636002, 142.4921875 196.17357127272, 142.4921875 213.75 M142.4921875 213.75 C30.537746218016295 213.75, -81.41669506396741 213.75, -142.4921875 213.75 M142.4921875 213.75 C52.55557503787573 213.75, -37.38103742424855 213.75, -142.4921875 213.75 M-142.4921875 213.75 C-142.4921875 201.12141294622995, -142.4921875 188.4928258924599, -142.4921875 171 M-142.4921875 213.75 C-142.4921875 200.1621661936019, -142.4921875 186.5743323872038, -142.4921875 171" stroke="#9370DB" stroke-width="1.3" fill="none" stroke-dasharray="0 0"/></g><g class="label name" transform="translate(-73.703125, -204.375)" style=""><foreignObject width="147.40625" height="24"><div xmlns="http://www.w3.org/1999/xhtml" style="display: table-cell; white-space: nowrap; line-height: 1.5; max-width: 265px; text-align: start;"><span class="nodeLabel"><p>INGESTION_BATCHES</p></span></div></foreignObject></g><g class="label attribute-type" transform="translate(-129.9921875, -161.625)" style=""><foreignObject width="19.65625" height="24"><div xmlns="http://www.w3.org/1999/xhtml" style="display: table-cell; white-space: nowrap; line-height: 1.5; max-width: 117px; text-align: start;"><span class="nodeLabel"><p>int</p></span></div></foreignObject></g><g class="label attribute-name" transform="translate(-39.6796875, -161.625)" style=""><foreignObject width="13.484375" height="24"><div xmlns="http://www.w3.org/1999/xhtml" style="display: table-cell; white-space: nowrap; line-height: 1.5; max-width: 113px; text-align: start;"><span class="nodeLabel"><p>id</p></span></div></foreignObject></g><g class="label attribute-keys" transform="translate(111.8515625, -161.625)" style=""><foreignObject width="18.140625" height="24"><div xmlns="http://www.w3.org/1999/xhtml" style="display: table-cell; white-space: nowrap; line-height: 1.5; max-width: 122px; text-align: start;"><span class="nodeLabel"><p>PK</p></span></div></foreignObject></g><g class="label attribute-comment" transform="translate(154.9921875, -161.625)" style=""><foreignObject width="0" height="0"><div xmlns="http://www.w3.org/1999/xhtml" style="display: table-cell; white-space: nowrap; line-height: 1.5; max-width: 100px; text-align: start;"><span class="nodeLabel"></span></div></foreignObject></g><g class="label attribute-type" transform="translate(-129.9921875, -118.875)" style=""><foreignObject width="40.375" height="24"><div xmlns="http://www.w3.org/1999/xhtml" style="display: table-cell; white-space: nowrap; line-height: 1.5; max-width: 136px; text-align: start;"><span class="nodeLabel"><p>string</p></span></div></foreignObject></g><g class="label attribute-name" transform="translate(-39.6796875, -118.875)" style=""><foreignObject width="126.53125" height="24"><div xmlns="http://www.w3.org/1999/xhtml" style="display: table-cell; white-space: nowrap; line-height: 1.5; max-width: 214px; text-align: start;"><span class="nodeLabel"><p>source_file_name</p></span></div></foreignObject></g><g class="label attribute-keys" transform="translate(111.8515625, -118.875)" style=""><foreignObject width="0" height="0"><div xmlns="http://www.w3.org/1999/xhtml" style="display: table-cell; white-space: nowrap; line-height: 1.5; max-width: 100px; text-align: start;"><span class="nodeLabel"></span></div></foreignObject></g><g class="label attribute-comment" transform="translate(154.9921875, -118.875)" style=""><foreignObject width="0" height="0"><div xmlns="http://www.w3.org/1999/xhtml" style="display: table-cell; white-space: nowrap; line-height: 1.5; max-width: 100px; text-align: start;"><span class="nodeLabel"></span></div></foreignObject></g><g class="label attribute-type" transform="translate(-129.9921875, -76.125)" style=""><foreignObject width="40.375" height="24"><div xmlns="http://www.w3.org/1999/xhtml" style="display: table-cell; white-space: nowrap; line-height: 1.5; max-width: 136px; text-align: start;"><span class="nodeLabel"><p>string</p></span></div></foreignObject></g><g class="label attribute-name" transform="translate(-39.6796875, -76.125)" style=""><foreignObject width="64.1875" height="24"><div xmlns="http://www.w3.org/1999/xhtml" style="display: table-cell; white-space: nowrap; line-height: 1.5; max-width: 157px; text-align: start;"><span class="nodeLabel"><p>file_type</p></span></div></foreignObject></g><g class="label attribute-keys" transform="translate(111.8515625, -76.125)" style=""><foreignObject width="0" height="0"><div xmlns="http://www.w3.org/1999/xhtml" style="display: table-cell; white-space: nowrap; line-height: 1.5; max-width: 100px; text-align: start;"><span class="nodeLabel"></span></div></foreignObject></g><g class="label attribute-comment" transform="translate(154.9921875, -76.125)" style=""><foreignObject width="0" height="0"><div xmlns="http://www.w3.org/1999/xhtml" style="display: table-cell; white-space: nowrap; line-height: 1.5; max-width: 100px; text-align: start;"><span class="nodeLabel"></span></div></foreignObject></g><g class="label attribute-type" transform="translate(-129.9921875, -33.375)" style=""><foreignObject width="65.3125" height="24"><div xmlns="http://www.w3.org/1999/xhtml" style="display: table-cell; white-space: nowrap; line-height: 1.5; max-width: 155px; text-align: start;"><span class="nodeLabel"><p>datetime</p></span></div></foreignObject></g><g class="label attribute-name" transform="translate(-39.6796875, -33.375)" style=""><foreignObject width="94.109375" height="24"><div xmlns="http://www.w3.org/1999/xhtml" style="display: table-cell; white-space: nowrap; line-height: 1.5; max-width: 184px; text-align: start;"><span class="nodeLabel"><p>processed_at</p></span></div></foreignObject></g><g class="label attribute-keys" transform="translate(111.8515625, -33.375)" style=""><foreignObject width="0" height="0"><div xmlns="http://www.w3.org/1999/xhtml" style="display: table-cell; white-space: nowrap; line-height: 1.5; max-width: 100px; text-align: start;"><span class="nodeLabel"></span></div></foreignObject></g><g class="label attribute-comment" transform="translate(154.9921875, -33.375)" style=""><foreignObject width="0" height="0"><div xmlns="http://www.w3.org/1999/xhtml" style="display: table-cell; white-space: nowrap; line-height: 1.5; max-width: 100px; text-align: start;"><span class="nodeLabel"></span></div></foreignObject></g><g class="label attribute-type" transform="translate(-129.9921875, 9.375)" style=""><foreignObject width="40.375" height="24"><div xmlns="http://www.w3.org/1999/xhtml" style="display: table-cell; white-space: nowrap; line-height: 1.5; max-width: 136px; text-align: start;"><span class="nodeLabel"><p>string</p></span></div></foreignObject></g><g class="label attribute-name" transform="translate(-39.6796875, 9.375)" style=""><foreignObject width="42.796875" height="24"><div xmlns="http://www.w3.org/1999/xhtml" style="display: table-cell; white-space: nowrap; line-height: 1.5; max-width: 136px; text-align: start;"><span class="nodeLabel"><p>status</p></span></div></foreignObject></g><g class="label attribute-keys" transform="translate(111.8515625, 9.375)" style=""><foreignObject width="0" height="0"><div xmlns="http://www.w3.org/1999/xhtml" style="display: table-cell; white-space: nowrap; line-height: 1.5; max-width: 100px; text-align: start;"><span class="nodeLabel"></span></div></foreignObject></g><g class="label attribute-comment" transform="translate(154.9921875, 9.375)" style=""><foreignObject width="0" height="0"><div xmlns="http://www.w3.org/1999/xhtml" style="display: table-cell; white-space: nowrap; line-height: 1.5; max-width: 100px; text-align: start;"><span class="nodeLabel"></span></div></foreignObject></g><g class="label attribute-type" transform="translate(-129.9921875, 52.125)" style=""><foreignObject width="19.65625" height="24"><div xmlns="http://www.w3.org/1999/xhtml" style="display: table-cell; white-space: nowrap; line-height: 1.5; max-width: 117px; text-align: start;"><span class="nodeLabel"><p>int</p></span></div></foreignObject></g><g class="label attribute-name" transform="translate(-39.6796875, 52.125)" style=""><foreignObject width="75.984375" height="24"><div xmlns="http://www.w3.org/1999/xhtml" style="display: table-cell; white-space: nowrap; line-height: 1.5; max-width: 169px; text-align: start;"><span class="nodeLabel"><p>total_rows</p></span></div></foreignObject></g><g class="label attribute-keys" transform="translate(111.8515625, 52.125)" style=""><foreignObject width="0" height="0"><div xmlns="http://www.w3.org/1999/xhtml" style="display: table-cell; white-space: nowrap; line-height: 1.5; max-width: 100px; text-align: start;"><span class="nodeLabel"></span></div></foreignObject></g><g class="label attribute-comment" transform="translate(154.9921875, 52.125)" style=""><foreignObject width="0" height="0"><div xmlns="http://www.w3.org/1999/xhtml" style="display: table-cell; white-space: nowrap; line-height: 1.5; max-width: 100px; text-align: start;"><span class="nodeLabel"></span></div></foreignObject></g><g class="label attribute-type" transform="translate(-129.9921875, 94.875)" style=""><foreignObject width="19.65625" height="24"><div xmlns="http://www.w3.org/1999/xhtml" style="display: table-cell; white-space: nowrap; line-height: 1.5; max-width: 117px; text-align: start;"><span class="nodeLabel"><p>int</p></span></div></foreignObject></g><g class="label attribute-name" transform="translate(-39.6796875, 94.875)" style=""><foreignObject width="100.296875" height="24"><div xmlns="http://www.w3.org/1999/xhtml" style="display: table-cell; white-space: nowrap; line-height: 1.5; max-width: 190px; text-align: start;"><span class="nodeLabel"><p>inserted_rows</p></span></div></foreignObject></g><g class="label attribute-keys" transform="translate(111.8515625, 94.875)" style=""><foreignObject width="0" height="0"><div xmlns="http://www.w3.org/1999/xhtml" style="display: table-cell; white-space: nowrap; line-height: 1.5; max-width: 100px; text-align: start;"><span class="nodeLabel"></span></div></foreignObject></g><g class="label attribute-comment" transform="translate(154.9921875, 94.875)" style=""><foreignObject width="0" height="0"><div xmlns="http://www.w3.org/1999/xhtml" style="display: table-cell; white-space: nowrap; line-height: 1.5; max-width: 100px; text-align: start;"><span class="nodeLabel"></span></div></foreignObject></g><g class="label attribute-type" transform="translate(-129.9921875, 137.625)" style=""><foreignObject width="19.65625" height="24"><div xmlns="http://www.w3.org/1999/xhtml" style="display: table-cell; white-space: nowrap; line-height: 1.5; max-width: 117px; text-align: start;"><span class="nodeLabel"><p>int</p></span></div></foreignObject></g><g class="label attribute-name" transform="translate(-39.6796875, 137.625)" style=""><foreignObject width="103.03125" height="24"><div xmlns="http://www.w3.org/1999/xhtml" style="display: table-cell; white-space: nowrap; line-height: 1.5; max-width: 191px; text-align: start;"><span class="nodeLabel"><p>rejected_rows</p></span></div></foreignObject></g><g class="label attribute-keys" transform="translate(111.8515625, 137.625)" style=""><foreignObject width="0" height="0"><div xmlns="http://www.w3.org/1999/xhtml" style="display: table-cell; white-space: nowrap; line-height: 1.5; max-width: 100px; text-align: start;"><span class="nodeLabel"></span></div></foreignObject></g><g class="label attribute-comment" transform="translate(154.9921875, 137.625)" style=""><foreignObject width="0" height="0"><div xmlns="http://www.w3.org/1999/xhtml" style="display: table-cell; white-space: nowrap; line-height: 1.5; max-width: 100px; text-align: start;"><span class="nodeLabel"></span></div></foreignObject></g><g class="label attribute-type" transform="translate(-129.9921875, 180.375)" style=""><foreignObject width="40.375" height="24"><div xmlns="http://www.w3.org/1999/xhtml" style="display: table-cell; white-space: nowrap; line-height: 1.5; max-width: 136px; text-align: start;"><span class="nodeLabel"><p>string</p></span></div></foreignObject></g><g class="label attribute-name" transform="translate(-39.6796875, 180.375)" style=""><foreignObject width="104.484375" height="24"><div xmlns="http://www.w3.org/1999/xhtml" style="display: table-cell; white-space: nowrap; line-height: 1.5; max-width: 193px; text-align: start;"><span class="nodeLabel"><p>error_message</p></span></div></foreignObject></g><g class="label attribute-keys" transform="translate(111.8515625, 180.375)" style=""><foreignObject width="0" height="0"><div xmlns="http://www.w3.org/1999/xhtml" style="display: table-cell; white-space: nowrap; line-height: 1.5; max-width: 100px; text-align: start;"><span class="nodeLabel"></span></div></foreignObject></g><g class="label attribute-comment" transform="translate(154.9921875, 180.375)" style=""><foreignObject width="0" height="0"><div xmlns="http://www.w3.org/1999/xhtml" style="display: table-cell; white-space: nowrap; line-height: 1.5; max-width: 100px; text-align: start;"><span class="nodeLabel"></span></div></foreignObject></g><g class="divider"><path d="M-142.4921875 -171.00005 L-142.4921875 -170.99995 L142.4921875 -170.99995 L142.4921875 -171.00005" stroke="none" stroke-width="0" fill="#ECECFF" fill-rule="evenodd"/><path d="M-142.4921875 -171.00005 C-142.4921875 -171.0000217632252, -142.4921875 -170.99999352645037, -142.4921875 -170.99995 M-142.4921875 -171.00005 C-142.4921875 -171.0000192339668, -142.4921875 -170.99998846793363, -142.4921875 -170.99995 M-142.4921875 -170.99995 C-76.11131074848697 -170.99995, -9.730433996973943 -170.99995, 142.4921875 -170.99995 M-142.4921875 -170.99995 C-67.15521554100744 -170.99995, 8.181756417985127 -170.99995, 142.4921875 -170.99995 M142.4921875 -170.99995 C142.4921875 -170.99998709962654, 142.4921875 -171.00002419925303, 142.4921875 -171.00005 M142.4921875 -170.99995 C142.4921875 -170.9999749406135, 142.4921875 -170.99999988122696, 142.4921875 -171.00005 M142.4921875 -171.00005 C61.43172462409896 -171.00005, -19.628738251802076 -171.00005, -142.4921875 -171.00005 M142.4921875 -171.00005 C77.56455489697295 -171.00005, 12.6369222939459 -171.00005, -142.4921875 -171.00005" stroke="#9370DB" stroke-width="1.3" fill="none" stroke-dasharray="0 0"/></g><g class="divider"><path d="M-52.1797375 -171 L-52.1796375 -171 L-52.1796375 213.75 L-52.1797375 213.75" stroke="none" stroke-width="0" fill="#ECECFF" fill-rule="evenodd"/><path d="M-52.1797375 -171 C-52.179703108038225 -171, -52.17966871607645 -171, -52.1796375 -171 M-52.1797375 -171 C-52.179709515737095 -171, -52.17968153147418 -171, -52.1796375 -171 M-52.1796375 -171 C-52.1796375 -37.80162052640628, -52.1796375 95.39675894718744, -52.1796375 213.75 M-52.1796375 -171 C-52.1796375 -89.1488831719484, -52.1796375 -7.297766343896797, -52.1796375 213.75 M-52.1796375 213.75 C-52.17967447282873 213.75, -52.17971144565746 213.75, -52.1797375 213.75 M-52.1796375 213.75 C-52.17966419183058 213.75, -52.179690883661166 213.75, -52.1797375 213.75 M-52.1797375 213.75 C-52.1797375 81.56705309964931, -52.1797375 -50.61589380070137, -52.1797375 -171 M-52.1797375 213.75 C-52.1797375 70.61172343113279, -52.1797375 -72.52655313773442, -52.1797375 -171" stroke="#9370DB" stroke-width="1.3" fill="none" stroke-dasharray="0 0"/></g><g class="divider"><path d="M99.3515125 -171 L99.3516125 -171 L99.3516125 213.75 L99.3515125 213.75" stroke="none" stroke-width="0" fill="#ECECFF" fill-rule="evenodd"/><path d="M99.3515125 -171 C99.35155198696586 -171, 99.3515914739317 -171, 99.3516125 -171 M99.3515125 -171 C99.3515331298056 -171, 99.3515537596112 -171, 99.3516125 -171 M99.3516125 -171 C99.3516125 -41.407912410083355, 99.3516125 88.18417517983329, 99.3516125 213.75 M99.3516125 -171 C99.3516125 -49.179244862858226, 99.3516125 72.64151027428355, 99.3516125 213.75 M99.3516125 213.75 C99.35158113683721 213.75, 99.35154977367442 213.75, 99.3515125 213.75 M99.3516125 213.75 C99.35157812254307 213.75, 99.35154374508615 213.75, 99.3515125 213.75 M99.3515125 213.75 C99.3515125 78.45063816561697, 99.3515125 -56.84872366876607, 99.3515125 -171 M99.3515125 213.75 C99.3515125 66.47472090778004, 99.3515125 -80.80055818443992, 99.3515125 -171" stroke="#9370DB" stroke-width="1.3" fill="none" stroke-dasharray="0 0"/></g><g class="divider"><path d="M-142.4921875 -171.00005 L-142.4921875 -170.99995 L142.4921875 -170.99995 L142.4921875 -171.00005" stroke="none" stroke-width="0" fill="#ECECFF" fill-rule="evenodd"/><path d="M-142.4921875 -171.00005 C-142.4921875 -171.0000216365925, -142.4921875 -170.99999327318503, -142.4921875 -170.99995 M-142.4921875 -171.00005 C-142.4921875 -171.0000157313923, -142.4921875 -170.9999814627846, -142.4921875 -170.99995 M-142.4921875 -170.99995 C-46.16177358176995 -170.99995, 50.1686403364601 -170.99995, 142.4921875 -170.99995 M-142.4921875 -170.99995 C-64.8225638599054 -170.99995, 12.847059780189198 -170.99995, 142.4921875 -170.99995 M142.4921875 -170.99995 C142.4921875 -170.99998653442262, 142.4921875 -171.0000230688452, 142.4921875 -171.00005 M142.4921875 -170.99995 C142.4921875 -170.99998894264706, 142.4921875 -171.0000278852941, 142.4921875 -171.00005 M142.4921875 -171.00005 C45.25761215427636 -171.00005, -51.97696319144728 -171.00005, -142.4921875 -171.00005 M142.4921875 -171.00005 C46.21692346385612 -171.00005, -50.05834057228776 -171.00005, -142.4921875 -171.00005" stroke="#9370DB" stroke-width="1.3" fill="none" stroke-dasharray="0 0"/></g></g><g class="node default" id="my-svg-entity-ALARM_REJECTIONS-1" data-look="classic" transform="translate(150.4921875, 964)"><g class="outer-path" style=""><path d="M-139.8515625 -128.25 L139.8515625 -128.25 L139.8515625 128.25 L-139.8515625 128.25" stroke="none" stroke-width="0" fill="#ECECFF"/><path d="M-139.8515625 -128.25 C-80.15888258296685 -128.25, -20.466202665933707 -128.25, 139.8515625 -128.25 M-139.8515625 -128.25 C-52.363389826848106 -128.25, 35.12478284630379 -128.25, 139.8515625 -128.25 M139.8515625 -128.25 C139.8515625 -58.948791028631916, 139.8515625 10.352417942736167, 139.8515625 128.25 M139.8515625 -128.25 C139.8515625 -62.12337864975167, 139.8515625 4.003242700496656, 139.8515625 128.25 M139.8515625 128.25 C79.19281630208346 128.25, 18.53407010416693 128.25, -139.8515625 128.25 M139.8515625 128.25 C32.39481292740096 128.25, -75.06193664519807 128.25, -139.8515625 128.25 M-139.8515625 128.25 C-139.8515625 70.80363064972646, -139.8515625 13.357261299452915, -139.8515625 -128.25 M-139.8515625 128.25 C-139.8515625 59.026065525577835, -139.8515625 -10.19786894884433, -139.8515625 -128.25" stroke="#9370DB" stroke-width="1.3" fill="none" stroke-dasharray="0 0"/></g><g style="" class="row-rect-odd"><path d="M-139.8515625 -85.5 L139.8515625 -85.5 L139.8515625 -42.75 L-139.8515625 -42.75" stroke="none" stroke-width="0" fill="hsl(240, 100%, 100%)"/><path d="M-139.8515625 -85.5 C-81.63885389543776 -85.5, -23.426145290875525 -85.5, 139.8515625 -85.5 M-139.8515625 -85.5 C-64.43758760579519 -85.5, 10.976387288409626 -85.5, 139.8515625 -85.5 M139.8515625 -85.5 C139.8515625 -74.7891612923516, 139.8515625 -64.07832258470319, 139.8515625 -42.75 M139.8515625 -85.5 C139.8515625 -70.32444372205327, 139.8515625 -55.14888744410655, 139.8515625 -42.75 M139.8515625 -42.75 C82.68509736067392 -42.75, 25.518632221347858 -42.75, -139.8515625 -42.75 M139.8515625 -42.75 C56.994992600581185 -42.75, -25.86157729883763 -42.75, -139.8515625 -42.75 M-139.8515625 -42.75 C-139.8515625 -59.68043159263132, -139.8515625 -76.61086318526264, -139.8515625 -85.5 M-139.8515625 -42.75 C-139.8515625 -55.15188816803532, -139.8515625 -67.55377633607064, -139.8515625 -85.5" stroke="#9370DB" stroke-width="1.3" fill="none" stroke-dasharray="0 0"/></g><g style="" class="row-rect-even"><path d="M-139.8515625 -42.75 L139.8515625 -42.75 L139.8515625 0 L-139.8515625 0" stroke="none" stroke-width="0" fill="hsl(240, 100%, 97.2745098039%)"/><path d="M-139.8515625 -42.75 C-59.95943045735366 -42.75, 19.932701585292676 -42.75, 139.8515625 -42.75 M-139.8515625 -42.75 C-80.9433635562915 -42.75, -22.035164612583003 -42.75, 139.8515625 -42.75 M139.8515625 -42.75 C139.8515625 -28.627263649523194, 139.8515625 -14.50452729904639, 139.8515625 0 M139.8515625 -42.75 C139.8515625 -29.81084792886515, 139.8515625 -16.871695857730305, 139.8515625 0 M139.8515625 0 C28.776018176522257 0, -82.29952614695549 0, -139.8515625 0 M139.8515625 0 C81.54491525104015 0, 23.238268002080304 0, -139.8515625 0 M-139.8515625 0 C-139.8515625 -16.736895555000835, -139.8515625 -33.47379111000167, -139.8515625 -42.75 M-139.8515625 0 C-139.8515625 -11.317115737655483, -139.8515625 -22.634231475310965, -139.8515625 -42.75" stroke="#9370DB" stroke-width="1.3" fill="none" stroke-dasharray="0 0"/></g><g style="" class="row-rect-odd"><path d="M-139.8515625 0 L139.8515625 0 L139.8515625 42.75 L-139.8515625 42.75" stroke="none" stroke-width="0" fill="hsl(240, 100%, 100%)"/><path d="M-139.8515625 0 C-44.107001411807175 0, 51.63755967638565 0, 139.8515625 0 M-139.8515625 0 C-46.615960142157235 0, 46.61964221568553 0, 139.8515625 0 M139.8515625 0 C139.8515625 8.597632886117246, 139.8515625 17.195265772234492, 139.8515625 42.75 M139.8515625 0 C139.8515625 15.998148648604088, 139.8515625 31.996297297208177, 139.8515625 42.75 M139.8515625 42.75 C32.624580964505554 42.75, -74.60240057098889 42.75, -139.8515625 42.75 M139.8515625 42.75 C52.09604527363335 42.75, -35.6594719527333 42.75, -139.8515625 42.75 M-139.8515625 42.75 C-139.8515625 33.09515276943386, -139.8515625 23.440305538867722, -139.8515625 0 M-139.8515625 42.75 C-139.8515625 26.41393976502779, -139.8515625 10.077879530055583, -139.8515625 0" stroke="#9370DB" stroke-width="1.3" fill="none" stroke-dasharray="0 0"/></g><g style="" class="row-rect-even"><path d="M-139.8515625 42.75 L139.8515625 42.75 L139.8515625 85.5 L-139.8515625 85.5" stroke="none" stroke-width="0" fill="hsl(240, 100%, 97.2745098039%)"/><path d="M-139.8515625 42.75 C-48.56381955484537 42.75, 42.72392339030927 42.75, 139.8515625 42.75 M-139.8515625 42.75 C-66.34850689346912 42.75, 7.154548713061757 42.75, 139.8515625 42.75 M139.8515625 42.75 C139.8515625 53.28552321924197, 139.8515625 63.82104643848395, 139.8515625 85.5 M139.8515625 42.75 C139.8515625 59.498406598027884, 139.8515625 76.24681319605577, 139.8515625 85.5 M139.8515625 85.5 C56.82313531283897 85.5, -26.205291874322057 85.5, -139.8515625 85.5 M139.8515625 85.5 C49.23921209375894 85.5, -41.373138312482126 85.5, -139.8515625 85.5 M-139.8515625 85.5 C-139.8515625 72.59293685578517, -139.8515625 59.68587371157034, -139.8515625 42.75 M-139.8515625 85.5 C-139.8515625 76.68395566872454, -139.8515625 67.86791133744907, -139.8515625 42.75" stroke="#9370DB" stroke-width="1.3" fill="none" stroke-dasharray="0 0"/></g><g style="" class="row-rect-odd"><path d="M-139.8515625 85.5 L139.8515625 85.5 L139.8515625 128.25 L-139.8515625 128.25" stroke="none" stroke-width="0" fill="hsl(240, 100%, 100%)"/><path d="M-139.8515625 85.5 C-70.79327935386314 85.5, -1.734996207726283 85.5, 139.8515625 85.5 M-139.8515625 85.5 C-80.18421487122014 85.5, -20.51686724244027 85.5, 139.8515625 85.5 M139.8515625 85.5 C139.8515625 96.37909389982967, 139.8515625 107.25818779965934, 139.8515625 128.25 M139.8515625 85.5 C139.8515625 99.06810788792012, 139.8515625 112.63621577584024, 139.8515625 128.25 M139.8515625 128.25 C69.2351837380093 128.25, -1.3811950239814053 128.25, -139.8515625 128.25 M139.8515625 128.25 C44.20575981344665 128.25, -51.440042873106705 128.25, -139.8515625 128.25 M-139.8515625 128.25 C-139.8515625 115.08701165773363, -139.8515625 101.92402331546727, -139.8515625 85.5 M-139.8515625 128.25 C-139.8515625 116.73598935796714, -139.8515625 105.22197871593428, -139.8515625 85.5" stroke="#9370DB" stroke-width="1.3" fill="none" stroke-dasharray="0 0"/></g><g class="label name" transform="translate(-71.0546875, -118.875)" style=""><foreignObject width="142.109375" height="24"><div xmlns="http://www.w3.org/1999/xhtml" style="display: table-cell; white-space: nowrap; line-height: 1.5; max-width: 261px; text-align: start;"><span class="nodeLabel"><p>ALARM_REJECTIONS</p></span></div></foreignObject></g><g class="label attribute-type" transform="translate(-127.3515625, -76.125)" style=""><foreignObject width="19.65625" height="24"><div xmlns="http://www.w3.org/1999/xhtml" style="display: table-cell; white-space: nowrap; line-height: 1.5; max-width: 117px; text-align: start;"><span class="nodeLabel"><p>int</p></span></div></foreignObject></g><g class="label attribute-name" transform="translate(-37.0390625, -76.125)" style=""><foreignObject width="13.484375" height="24"><div xmlns="http://www.w3.org/1999/xhtml" style="display: table-cell; white-space: nowrap; line-height: 1.5; max-width: 113px; text-align: start;"><span class="nodeLabel"><p>id</p></span></div></foreignObject></g><g class="label attribute-keys" transform="translate(109.2109375, -76.125)" style=""><foreignObject width="18.140625" height="24"><div xmlns="http://www.w3.org/1999/xhtml" style="display: table-cell; white-space: nowrap; line-height: 1.5; max-width: 122px; text-align: start;"><span class="nodeLabel"><p>PK</p></span></div></foreignObject></g><g class="label attribute-comment" transform="translate(152.3515625, -76.125)" style=""><foreignObject width="0" height="0"><div xmlns="http://www.w3.org/1999/xhtml" style="display: table-cell; white-space: nowrap; line-height: 1.5; max-width: 100px; text-align: start;"><span class="nodeLabel"></span></div></foreignObject></g><g class="label attribute-type" transform="translate(-127.3515625, -33.375)" style=""><foreignObject width="19.65625" height="24"><div xmlns="http://www.w3.org/1999/xhtml" style="display: table-cell; white-space: nowrap; line-height: 1.5; max-width: 117px; text-align: start;"><span class="nodeLabel"><p>int</p></span></div></foreignObject></g><g class="label attribute-name" transform="translate(-37.0390625, -33.375)" style=""><foreignObject width="62.203125" height="24"><div xmlns="http://www.w3.org/1999/xhtml" style="display: table-cell; white-space: nowrap; line-height: 1.5; max-width: 157px; text-align: start;"><span class="nodeLabel"><p>batch_id</p></span></div></foreignObject></g><g class="label attribute-keys" transform="translate(109.2109375, -33.375)" style=""><foreignObject width="17.609375" height="24"><div xmlns="http://www.w3.org/1999/xhtml" style="display: table-cell; white-space: nowrap; line-height: 1.5; max-width: 122px; text-align: start;"><span class="nodeLabel"><p>FK</p></span></div></foreignObject></g><g class="label attribute-comment" transform="translate(152.3515625, -33.375)" style=""><foreignObject width="0" height="0"><div xmlns="http://www.w3.org/1999/xhtml" style="display: table-cell; white-space: nowrap; line-height: 1.5; max-width: 100px; text-align: start;"><span class="nodeLabel"></span></div></foreignObject></g><g class="label attribute-type" transform="translate(-127.3515625, 9.375)" style=""><foreignObject width="29.4375" height="24"><div xmlns="http://www.w3.org/1999/xhtml" style="display: table-cell; white-space: nowrap; line-height: 1.5; max-width: 126px; text-align: start;"><span class="nodeLabel"><p>text</p></span></div></foreignObject></g><g class="label attribute-name" transform="translate(-37.0390625, 9.375)" style=""><foreignObject width="90.765625" height="24"><div xmlns="http://www.w3.org/1999/xhtml" style="display: table-cell; white-space: nowrap; line-height: 1.5; max-width: 185px; text-align: start;"><span class="nodeLabel"><p>raw_payload</p></span></div></foreignObject></g><g class="label attribute-keys" transform="translate(109.2109375, 9.375)" style=""><foreignObject width="0" height="0"><div xmlns="http://www.w3.org/1999/xhtml" style="display: table-cell; white-space: nowrap; line-height: 1.5; max-width: 100px; text-align: start;"><span class="nodeLabel"></span></div></foreignObject></g><g class="label attribute-comment" transform="translate(152.3515625, 9.375)" style=""><foreignObject width="0" height="0"><div xmlns="http://www.w3.org/1999/xhtml" style="display: table-cell; white-space: nowrap; line-height: 1.5; max-width: 100px; text-align: start;"><span class="nodeLabel"></span></div></foreignObject></g><g class="label attribute-type" transform="translate(-127.3515625, 52.125)" style=""><foreignObject width="29.4375" height="24"><div xmlns="http://www.w3.org/1999/xhtml" style="display: table-cell; white-space: nowrap; line-height: 1.5; max-width: 126px; text-align: start;"><span class="nodeLabel"><p>text</p></span></div></foreignObject></g><g class="label attribute-name" transform="translate(-37.0390625, 52.125)" style=""><foreignObject width="121.25" height="24"><div xmlns="http://www.w3.org/1999/xhtml" style="display: table-cell; white-space: nowrap; line-height: 1.5; max-width: 208px; text-align: start;"><span class="nodeLabel"><p>rejection_reason</p></span></div></foreignObject></g><g class="label attribute-keys" transform="translate(109.2109375, 52.125)" style=""><foreignObject width="0" height="0"><div xmlns="http://www.w3.org/1999/xhtml" style="display: table-cell; white-space: nowrap; line-height: 1.5; max-width: 100px; text-align: start;"><span class="nodeLabel"></span></div></foreignObject></g><g class="label attribute-comment" transform="translate(152.3515625, 52.125)" style=""><foreignObject width="0" height="0"><div xmlns="http://www.w3.org/1999/xhtml" style="display: table-cell; white-space: nowrap; line-height: 1.5; max-width: 100px; text-align: start;"><span class="nodeLabel"></span></div></foreignObject></g><g class="label attribute-type" transform="translate(-127.3515625, 94.875)" style=""><foreignObject width="65.3125" height="24"><div xmlns="http://www.w3.org/1999/xhtml" style="display: table-cell; white-space: nowrap; line-height: 1.5; max-width: 155px; text-align: start;"><span class="nodeLabel"><p>datetime</p></span></div></foreignObject></g><g class="label attribute-name" transform="translate(-37.0390625, 94.875)" style=""><foreignObject width="78.40625" height="24"><div xmlns="http://www.w3.org/1999/xhtml" style="display: table-cell; white-space: nowrap; line-height: 1.5; max-width: 166px; text-align: start;"><span class="nodeLabel"><p>created_at</p></span></div></foreignObject></g><g class="label attribute-keys" transform="translate(109.2109375, 94.875)" style=""><foreignObject width="0" height="0"><div xmlns="http://www.w3.org/1999/xhtml" style="display: table-cell; white-space: nowrap; line-height: 1.5; max-width: 100px; text-align: start;"><span class="nodeLabel"></span></div></foreignObject></g><g class="label attribute-comment" transform="translate(152.3515625, 94.875)" style=""><foreignObject width="0" height="0"><div xmlns="http://www.w3.org/1999/xhtml" style="display: table-cell; white-space: nowrap; line-height: 1.5; max-width: 100px; text-align: start;"><span class="nodeLabel"></span></div></foreignObject></g><g class="divider"><path d="M-139.8515625 -85.50005 L-139.8515625 -85.49995 L139.8515625 -85.49995 L139.8515625 -85.50005" stroke="none" stroke-width="0" fill="#ECECFF" fill-rule="evenodd"/><path d="M-139.8515625 -85.50005 C-139.8515625 -85.5000153439191, -139.8515625 -85.4999806878382, -139.8515625 -85.49995 M-139.8515625 -85.50005 C-139.8515625 -85.50002636823298, -139.8515625 -85.50000273646596, -139.8515625 -85.49995 M-139.8515625 -85.49995 C-36.03918961024867 -85.49995, 67.77318327950266 -85.49995, 139.8515625 -85.49995 M-139.8515625 -85.49995 C-35.80174925119009 -85.49995, 68.24806399761982 -85.49995, 139.8515625 -85.49995 M139.8515625 -85.49995 C139.8515625 -85.49998244023114, 139.8515625 -85.50001488046226, 139.8515625 -85.50005 M139.8515625 -85.49995 C139.8515625 -85.49997472746983, 139.8515625 -85.49999945493967, 139.8515625 -85.50005 M139.8515625 -85.50005 C47.82911508085422 -85.50005, -44.193332338291555 -85.50005, -139.8515625 -85.50005 M139.8515625 -85.50005 C67.20091937576548 -85.50005, -5.44972374846904 -85.50005, -139.8515625 -85.50005" stroke="#9370DB" stroke-width="1.3" fill="none" stroke-dasharray="0 0"/></g><g class="divider"><path d="M-49.5391125 -85.5 L-49.5390125 -85.5 L-49.5390125 128.25 L-49.5391125 128.25" stroke="none" stroke-width="0" fill="#ECECFF" fill-rule="evenodd"/><path d="M-49.5391125 -85.5 C-49.53907669996991 -85.5, -49.53904089993982 -85.5, -49.5390125 -85.5 M-49.5391125 -85.5 C-49.539085876563846 -85.5, -49.53905925312769 -85.5, -49.5390125 -85.5 M-49.5390125 -85.5 C-49.5390125 -16.964736657567386, -49.5390125 51.57052668486523, -49.5390125 128.25 M-49.5390125 -85.5 C-49.5390125 -37.96730548802437, -49.5390125 9.565389023951255, -49.5390125 128.25 M-49.5390125 128.25 C-49.5390475228346 128.25, -49.5390825456692 128.25, -49.5391125 128.25 M-49.5390125 128.25 C-49.53904449149336 128.25, -49.539076482986715 128.25, -49.5391125 128.25 M-49.5391125 128.25 C-49.5391125 51.182803875342884, -49.5391125 -25.88439224931423, -49.5391125 -85.5 M-49.5391125 128.25 C-49.5391125 83.40521928201679, -49.5391125 38.56043856403359, -49.5391125 -85.5" stroke="#9370DB" stroke-width="1.3" fill="none" stroke-dasharray="0 0"/></g><g class="divider"><path d="M96.7108875 -85.5 L96.7109875 -85.5 L96.7109875 128.25 L96.7108875 128.25" stroke="none" stroke-width="0" fill="#ECECFF" fill-rule="evenodd"/><path d="M96.7108875 -85.5 C96.71091017748938 -85.5, 96.71093285497876 -85.5, 96.7109875 -85.5 M96.7108875 -85.5 C96.71091556769754 -85.5, 96.7109436353951 -85.5, 96.7109875 -85.5 M96.7109875 -85.5 C96.7109875 -3.1137098976202253, 96.7109875 79.27258020475955, 96.7109875 128.25 M96.7109875 -85.5 C96.7109875 -11.89326870126962, 96.7109875 61.71346259746076, 96.7109875 128.25 M96.7109875 128.25 C96.71096522208444 128.25, 96.71094294416888 128.25, 96.7108875 128.25 M96.7109875 128.25 C96.71096646550095 128.25, 96.71094543100189 128.25, 96.7108875 128.25 M96.7108875 128.25 C96.7108875 83.63216787341472, 96.7108875 39.01433574682943, 96.7108875 -85.5 M96.7108875 128.25 C96.7108875 64.50270493547146, 96.7108875 0.7554098709429127, 96.7108875 -85.5" stroke="#9370DB" stroke-width="1.3" fill="none" stroke-dasharray="0 0"/></g><g class="divider"><path d="M-139.8515625 -85.50005 L-139.8515625 -85.49995 L139.8515625 -85.49995 L139.8515625 -85.50005" stroke="none" stroke-width="0" fill="#ECECFF" fill-rule="evenodd"/><path d="M-139.8515625 -85.50005 C-139.8515625 -85.50001337243656, -139.8515625 -85.4999767448731, -139.8515625 -85.49995 M-139.8515625 -85.50005 C-139.8515625 -85.50001253177177, -139.8515625 -85.49997506354356, -139.8515625 -85.49995 M-139.8515625 -85.49995 C-42.49298666815832 -85.49995, 54.86558916368335 -85.49995, 139.8515625 -85.49995 M-139.8515625 -85.49995 C-72.12287374233217 -85.49995, -4.394184984664349 -85.49995, 139.8515625 -85.49995 M139.8515625 -85.49995 C139.8515625 -85.49998270544734, 139.8515625 -85.50001541089469, 139.8515625 -85.50005 M139.8515625 -85.49995 C139.8515625 -85.49998030153733, 139.8515625 -85.50001060307466, 139.8515625 -85.50005 M139.8515625 -85.50005 C37.017550901114916 -85.50005, -65.81646069777017 -85.50005, -139.8515625 -85.50005 M139.8515625 -85.50005 C49.12300139088126 -85.50005, -41.60555971823749 -85.50005, -139.8515625 -85.50005" stroke="#9370DB" stroke-width="1.3" fill="none" stroke-dasharray="0 0"/></g></g><g class="node default" id="my-svg-entity-ALARMS-2" data-look="classic" transform="translate(577.8046875, 371.375)"><g class="outer-path" style=""><path d="M-144.8203125 -363.375 L144.8203125 -363.375 L144.8203125 363.375 L-144.8203125 363.375" stroke="none" stroke-width="0" fill="#ECECFF"/><path d="M-144.8203125 -363.375 C-38.26448121651316 -363.375, 68.29135006697368 -363.375, 144.8203125 -363.375 M-144.8203125 -363.375 C-49.11435793497249 -363.375, 46.59159663005502 -363.375, 144.8203125 -363.375 M144.8203125 -363.375 C144.8203125 -183.57477622964396, 144.8203125 -3.774552459287918, 144.8203125 363.375 M144.8203125 -363.375 C144.8203125 -74.65242495377527, 144.8203125 214.07015009244947, 144.8203125 363.375 M144.8203125 363.375 C84.05859016011388 363.375, 23.296867820227774 363.375, -144.8203125 363.375 M144.8203125 363.375 C29.830736731268942 363.375, -85.15883903746212 363.375, -144.8203125 363.375 M-144.8203125 363.375 C-144.8203125 156.27547169919603, -144.8203125 -50.824056601607936, -144.8203125 -363.375 M-144.8203125 363.375 C-144.8203125 106.60158515027877, -144.8203125 -150.17182969944247, -144.8203125 -363.375" stroke="#9370DB" stroke-width="1.3" fill="none" stroke-dasharray="0 0"/></g><g style="" class="row-rect-odd"><path d="M-144.8203125 -320.625 L144.8203125 -320.625 L144.8203125 -277.875 L-144.8203125 -277.875" stroke="none" stroke-width="0" fill="hsl(240, 100%, 100%)"/><path d="M-144.8203125 -320.625 C-47.473869892521236 -320.625, 49.87257271495753 -320.625, 144.8203125 -320.625 M-144.8203125 -320.625 C-83.88566076518694 -320.625, -22.951009030373882 -320.625, 144.8203125 -320.625 M144.8203125 -320.625 C144.8203125 -311.9758583091346, 144.8203125 -303.32671661826913, 144.8203125 -277.875 M144.8203125 -320.625 C144.8203125 -307.12852488654977, 144.8203125 -293.63204977309954, 144.8203125 -277.875 M144.8203125 -277.875 C41.69978616857682 -277.875, -61.42074016284636 -277.875, -144.8203125 -277.875 M144.8203125 -277.875 C43.190830776453666 -277.875, -58.43865094709267 -277.875, -144.8203125 -277.875 M-144.8203125 -277.875 C-144.8203125 -294.751446066614, -144.8203125 -311.627892133228, -144.8203125 -320.625 M-144.8203125 -277.875 C-144.8203125 -287.6030477729091, -144.8203125 -297.33109554581824, -144.8203125 -320.625" stroke="#9370DB" stroke-width="1.3" fill="none" stroke-dasharray="0 0"/></g><g style="" class="row-rect-even"><path d="M-144.8203125 -277.875 L144.8203125 -277.875 L144.8203125 -235.125 L-144.8203125 -235.125" stroke="none" stroke-width="0" fill="hsl(240, 100%, 97.2745098039%)"/><path d="M-144.8203125 -277.875 C-50.00478418801133 -277.875, 44.810744123977344 -277.875, 144.8203125 -277.875 M-144.8203125 -277.875 C-30.007605425125362 -277.875, 84.80510164974928 -277.875, 144.8203125 -277.875 M144.8203125 -277.875 C144.8203125 -263.543293103747, 144.8203125 -249.21158620749398, 144.8203125 -235.125 M144.8203125 -277.875 C144.8203125 -262.8712448887755, 144.8203125 -247.867489777551, 144.8203125 -235.125 M144.8203125 -235.125 C78.80907160029275 -235.125, 12.797830700585507 -235.125, -144.8203125 -235.125 M144.8203125 -235.125 C65.9887724556182 -235.125, -12.842767588763593 -235.125, -144.8203125 -235.125 M-144.8203125 -235.125 C-144.8203125 -247.01388853436913, -144.8203125 -258.90277706873826, -144.8203125 -277.875 M-144.8203125 -235.125 C-144.8203125 -248.80190908960205, -144.8203125 -262.4788181792041, -144.8203125 -277.875" stroke="#9370DB" stroke-width="1.3" fill="none" stroke-dasharray="0 0"/></g><g style="" class="row-rect-odd"><path d="M-144.8203125 -235.125 L144.8203125 -235.125 L144.8203125 -192.375 L-144.8203125 -192.375" stroke="none" stroke-width="0" fill="hsl(240, 100%, 100%)"/><path d="M-144.8203125 -235.125 C-36.95813112822486 -235.125, 70.90405024355027 -235.125, 144.8203125 -235.125 M-144.8203125 -235.125 C-45.35505122715509 -235.125, 54.110210045689826 -235.125, 144.8203125 -235.125 M144.8203125 -235.125 C144.8203125 -225.66148955890156, 144.8203125 -216.19797911780313, 144.8203125 -192.375 M144.8203125 -235.125 C144.8203125 -218.8563658345176, 144.8203125 -202.5877316690352, 144.8203125 -192.375 M144.8203125 -192.375 C31.165537634654314 -192.375, -82.48923723069137 -192.375, -144.8203125 -192.375 M144.8203125 -192.375 C31.27179945544428 -192.375, -82.27671358911144 -192.375, -144.8203125 -192.375 M-144.8203125 -192.375 C-144.8203125 -203.8634207365327, -144.8203125 -215.3518414730654, -144.8203125 -235.125 M-144.8203125 -192.375 C-144.8203125 -206.9579650362676, -144.8203125 -221.5409300725352, -144.8203125 -235.125" stroke="#9370DB" stroke-width="1.3" fill="none" stroke-dasharray="0 0"/></g><g style="" class="row-rect-even"><path d="M-144.8203125 -192.375 L144.8203125 -192.375 L144.8203125 -149.625 L-144.8203125 -149.625" stroke="none" stroke-width="0" fill="hsl(240, 100%, 97.2745098039%)"/><path d="M-144.8203125 -192.375 C-72.51799615070158 -192.375, -0.21567980140315512 -192.375, 144.8203125 -192.375 M-144.8203125 -192.375 C-75.18270489335296 -192.375, -5.545097286705925 -192.375, 144.8203125 -192.375 M144.8203125 -192.375 C144.8203125 -179.16134548628528, 144.8203125 -165.9476909725706, 144.8203125 -149.625 M144.8203125 -192.375 C144.8203125 -177.31043027713318, 144.8203125 -162.24586055426636, 144.8203125 -149.625 M144.8203125 -149.625 C78.08598915552014 -149.625, 11.351665811040277 -149.625, -144.8203125 -149.625 M144.8203125 -149.625 C84.82080774240245 -149.625, 24.821302984804916 -149.625, -144.8203125 -149.625 M-144.8203125 -149.625 C-144.8203125 -161.54921379251894, -144.8203125 -173.47342758503788, -144.8203125 -192.375 M-144.8203125 -149.625 C-144.8203125 -159.51632653362194, -144.8203125 -169.40765306724387, -144.8203125 -192.375" stroke="#9370DB" stroke-width="1.3" fill="none" stroke-dasharray="0 0"/></g><g style="" class="row-rect-odd"><path d="M-144.8203125 -149.625 L144.8203125 -149.625 L144.8203125 -106.875 L-144.8203125 -106.875" stroke="none" stroke-width="0" fill="hsl(240, 100%, 100%)"/><path d="M-144.8203125 -149.625 C-51.58130028762591 -149.625, 41.657711924748185 -149.625, 144.8203125 -149.625 M-144.8203125 -149.625 C-59.68267424369941 -149.625, 25.45496401260118 -149.625, 144.8203125 -149.625 M144.8203125 -149.625 C144.8203125 -136.4309020289309, 144.8203125 -123.23680405786179, 144.8203125 -106.875 M144.8203125 -149.625 C144.8203125 -136.06099825718735, 144.8203125 -122.49699651437471, 144.8203125 -106.875 M144.8203125 -106.875 C55.68783022556286 -106.875, -33.444652048874275 -106.875, -144.8203125 -106.875 M144.8203125 -106.875 C51.67312560978317 -106.875, -41.47406128043366 -106.875, -144.8203125 -106.875 M-144.8203125 -106.875 C-144.8203125 -121.38869369843579, -144.8203125 -135.90238739687157, -144.8203125 -149.625 M-144.8203125 -106.875 C-144.8203125 -116.39028765025981, -144.8203125 -125.90557530051962, -144.8203125 -149.625" stroke="#9370DB" stroke-width="1.3" fill="none" stroke-dasharray="0 0"/></g><g style="" class="row-rect-even"><path d="M-144.8203125 -106.875 L144.8203125 -106.875 L144.8203125 -64.125 L-144.8203125 -64.125" stroke="none" stroke-width="0" fill="hsl(240, 100%, 97.2745098039%)"/><path d="M-144.8203125 -106.875 C-79.98979487818454 -106.875, -15.15927725636908 -106.875, 144.8203125 -106.875 M-144.8203125 -106.875 C-83.02294638165559 -106.875, -21.225580263311173 -106.875, 144.8203125 -106.875 M144.8203125 -106.875 C144.8203125 -95.55229972300184, 144.8203125 -84.22959944600368, 144.8203125 -64.125 M144.8203125 -106.875 C144.8203125 -94.61208914586686, 144.8203125 -82.34917829173371, 144.8203125 -64.125 M144.8203125 -64.125 C64.05890028880415 -64.125, -16.702511922391693 -64.125, -144.8203125 -64.125 M144.8203125 -64.125 C78.41201755998425 -64.125, 12.0037226199685 -64.125, -144.8203125 -64.125 M-144.8203125 -64.125 C-144.8203125 -76.95606447771331, -144.8203125 -89.78712895542662, -144.8203125 -106.875 M-144.8203125 -64.125 C-144.8203125 -78.0846455820209, -144.8203125 -92.0442911640418, -144.8203125 -106.875" stroke="#9370DB" stroke-width="1.3" fill="none" stroke-dasharray="0 0"/></g><g style="" class="row-rect-odd"><path d="M-144.8203125 -64.125 L144.8203125 -64.125 L144.8203125 -21.375 L-144.8203125 -21.375" stroke="none" stroke-width="0" fill="hsl(240, 100%, 100%)"/><path d="M-144.8203125 -64.125 C-72.97545103324912 -64.125, -1.1305895664982302 -64.125, 144.8203125 -64.125 M-144.8203125 -64.125 C-73.05816016599876 -64.125, -1.296007831997514 -64.125, 144.8203125 -64.125 M144.8203125 -64.125 C144.8203125 -52.73176220919962, 144.8203125 -41.338524418399246, 144.8203125 -21.375 M144.8203125 -64.125 C144.8203125 -52.65534135253093, 144.8203125 -41.185682705061865, 144.8203125 -21.375 M144.8203125 -21.375 C38.82734053019007 -21.375, -67.16563143961986 -21.375, -144.8203125 -21.375 M144.8203125 -21.375 C67.60983149352738 -21.375, -9.600649512945239 -21.375, -144.8203125 -21.375 M-144.8203125 -21.375 C-144.8203125 -31.49766443986409, -144.8203125 -41.62032887972818, -144.8203125 -64.125 M-144.8203125 -21.375 C-144.8203125 -32.3284154052039, -144.8203125 -43.28183081040779, -144.8203125 -64.125" stroke="#9370DB" stroke-width="1.3" fill="none" stroke-dasharray="0 0"/></g><g style="" class="row-rect-even"><path d="M-144.8203125 -21.375 L144.8203125 -21.375 L144.8203125 21.375 L-144.8203125 21.375" stroke="none" stroke-width="0" fill="hsl(240, 100%, 97.2745098039%)"/><path d="M-144.8203125 -21.375 C-76.26696684757111 -21.375, -7.713621195142224 -21.375, 144.8203125 -21.375 M-144.8203125 -21.375 C-35.43574607189338 -21.375, 73.94882035621325 -21.375, 144.8203125 -21.375 M144.8203125 -21.375 C144.8203125 -5.720302777561949, 144.8203125 9.934394444876101, 144.8203125 21.375 M144.8203125 -21.375 C144.8203125 -10.05884170957675, 144.8203125 1.2573165808464992, 144.8203125 21.375 M144.8203125 21.375 C69.79109466746715 21.375, -5.238123165065701 21.375, -144.8203125 21.375 M144.8203125 21.375 C59.961244632629544 21.375, -24.897823234740912 21.375, -144.8203125 21.375 M-144.8203125 21.375 C-144.8203125 10.818989047134785, -144.8203125 0.2629780942695703, -144.8203125 -21.375 M-144.8203125 21.375 C-144.8203125 4.789058215285149, -144.8203125 -11.796883569429703, -144.8203125 -21.375" stroke="#9370DB" stroke-width="1.3" fill="none" stroke-dasharray="0 0"/></g><g style="" class="row-rect-odd"><path d="M-144.8203125 21.375 L144.8203125 21.375 L144.8203125 64.125 L-144.8203125 64.125" stroke="none" stroke-width="0" fill="hsl(240, 100%, 100%)"/><path d="M-144.8203125 21.375 C-48.986843064564226 21.375, 46.84662637087155 21.375, 144.8203125 21.375 M-144.8203125 21.375 C-78.44366020002226 21.375, -12.06700790004453 21.375, 144.8203125 21.375 M144.8203125 21.375 C144.8203125 37.48622989752917, 144.8203125 53.59745979505835, 144.8203125 64.125 M144.8203125 21.375 C144.8203125 31.61419462976311, 144.8203125 41.85338925952622, 144.8203125 64.125 M144.8203125 64.125 C54.75637534467046 64.125, -35.30756181065908 64.125, -144.8203125 64.125 M144.8203125 64.125 C66.04967822767709 64.125, -12.720956044645817 64.125, -144.8203125 64.125 M-144.8203125 64.125 C-144.8203125 50.060400541689674, -144.8203125 35.995801083379355, -144.8203125 21.375 M-144.8203125 64.125 C-144.8203125 49.6229682787037, -144.8203125 35.120936557407404, -144.8203125 21.375" stroke="#9370DB" stroke-width="1.3" fill="none" stroke-dasharray="0 0"/></g><g style="" class="row-rect-even"><path d="M-144.8203125 64.125 L144.8203125 64.125 L144.8203125 106.875 L-144.8203125 106.875" stroke="none" stroke-width="0" fill="hsl(240, 100%, 97.2745098039%)"/><path d="M-144.8203125 64.125 C-69.96769383476163 64.125, 4.884924830476734 64.125, 144.8203125 64.125 M-144.8203125 64.125 C-57.394019945038366 64.125, 30.032272609923268 64.125, 144.8203125 64.125 M144.8203125 64.125 C144.8203125 80.11981609439889, 144.8203125 96.11463218879777, 144.8203125 106.875 M144.8203125 64.125 C144.8203125 75.59770942638872, 144.8203125 87.07041885277742, 144.8203125 106.875 M144.8203125 106.875 C42.458532386665354 106.875, -59.90324772666929 106.875, -144.8203125 106.875 M144.8203125 106.875 C72.53371770473905 106.875, 0.2471229094780938 106.875, -144.8203125 106.875 M-144.8203125 106.875 C-144.8203125 97.2213776688217, -144.8203125 87.5677553376434, -144.8203125 64.125 M-144.8203125 106.875 C-144.8203125 92.13722733187426, -144.8203125 77.39945466374851, -144.8203125 64.125" stroke="#9370DB" stroke-width="1.3" fill="none" stroke-dasharray="0 0"/></g><g style="" class="row-rect-odd"><path d="M-144.8203125 106.875 L144.8203125 106.875 L144.8203125 149.625 L-144.8203125 149.625" stroke="none" stroke-width="0" fill="hsl(240, 100%, 100%)"/><path d="M-144.8203125 106.875 C-42.5417747712289 106.875, 59.7367629575422 106.875, 144.8203125 106.875 M-144.8203125 106.875 C-61.25137130809483 106.875, 22.317569883810336 106.875, 144.8203125 106.875 M144.8203125 106.875 C144.8203125 120.69535027412405, 144.8203125 134.5157005482481, 144.8203125 149.625 M144.8203125 106.875 C144.8203125 119.64387196191187, 144.8203125 132.41274392382374, 144.8203125 149.625 M144.8203125 149.625 C43.05203301985085 149.625, -58.716246460298294 149.625, -144.8203125 149.625 M144.8203125 149.625 C53.094940317261305 149.625, -38.63043186547739 149.625, -144.8203125 149.625 M-144.8203125 149.625 C-144.8203125 134.80779772784842, -144.8203125 119.99059545569682, -144.8203125 106.875 M-144.8203125 149.625 C-144.8203125 133.4168239144564, -144.8203125 117.20864782891277, -144.8203125 106.875" stroke="#9370DB" stroke-width="1.3" fill="none" stroke-dasharray="0 0"/></g><g style="" class="row-rect-even"><path d="M-144.8203125 149.625 L144.8203125 149.625 L144.8203125 192.375 L-144.8203125 192.375" stroke="none" stroke-width="0" fill="hsl(240, 100%, 97.2745098039%)"/><path d="M-144.8203125 149.625 C-58.06189339922619 149.625, 28.696525701547614 149.625, 144.8203125 149.625 M-144.8203125 149.625 C-78.46611207499434 149.625, -12.111911649988684 149.625, 144.8203125 149.625 M144.8203125 149.625 C144.8203125 164.66963556632035, 144.8203125 179.71427113264073, 144.8203125 192.375 M144.8203125 149.625 C144.8203125 163.2577961771149, 144.8203125 176.8905923542298, 144.8203125 192.375 M144.8203125 192.375 C78.21711056511029 192.375, 11.613908630220578 192.375, -144.8203125 192.375 M144.8203125 192.375 C38.1925210178355 192.375, -68.435270464329 192.375, -144.8203125 192.375 M-144.8203125 192.375 C-144.8203125 182.41280043506123, -144.8203125 172.45060087012246, -144.8203125 149.625 M-144.8203125 192.375 C-144.8203125 177.1827832609108, -144.8203125 161.99056652182162, -144.8203125 149.625" stroke="#9370DB" stroke-width="1.3" fill="none" stroke-dasharray="0 0"/></g><g style="" class="row-rect-odd"><path d="M-144.8203125 192.375 L144.8203125 192.375 L144.8203125 235.125 L-144.8203125 235.125" stroke="none" stroke-width="0" fill="hsl(240, 100%, 100%)"/><path d="M-144.8203125 192.375 C-86.04944821516125 192.375, -27.27858393032251 192.375, 144.8203125 192.375 M-144.8203125 192.375 C-40.76915335460774 192.375, 63.282005790784524 192.375, 144.8203125 192.375 M144.8203125 192.375 C144.8203125 206.85423720384023, 144.8203125 221.33347440768043, 144.8203125 235.125 M144.8203125 192.375 C144.8203125 203.37039108296764, 144.8203125 214.3657821659353, 144.8203125 235.125 M144.8203125 235.125 C47.19618153812064 235.125, -50.42794942375872 235.125, -144.8203125 235.125 M144.8203125 235.125 C70.69163374411076 235.125, -3.43704501177848 235.125, -144.8203125 235.125 M-144.8203125 235.125 C-144.8203125 218.48320859945298, -144.8203125 201.841417198906, -144.8203125 192.375 M-144.8203125 235.125 C-144.8203125 225.72414792877217, -144.8203125 216.32329585754434, -144.8203125 192.375" stroke="#9370DB" stroke-width="1.3" fill="none" stroke-dasharray="0 0"/></g><g style="" class="row-rect-even"><path d="M-144.8203125 235.125 L144.8203125 235.125 L144.8203125 277.875 L-144.8203125 277.875" stroke="none" stroke-width="0" fill="hsl(240, 100%, 97.2745098039%)"/><path d="M-144.8203125 235.125 C-77.97724091687581 235.125, -11.134169333751629 235.125, 144.8203125 235.125 M-144.8203125 235.125 C-51.40329011978466 235.125, 42.013732260430686 235.125, 144.8203125 235.125 M144.8203125 235.125 C144.8203125 247.78851922581447, 144.8203125 260.45203845162894, 144.8203125 277.875 M144.8203125 235.125 C144.8203125 249.42959277882113, 144.8203125 263.73418555764226, 144.8203125 277.875 M144.8203125 277.875 C72.88458419783376 277.875, 0.9488558956675206 277.875, -144.8203125 277.875 M144.8203125 277.875 C68.93964006131587 277.875, -6.941032377368259 277.875, -144.8203125 277.875 M-144.8203125 277.875 C-144.8203125 266.5914440560502, -144.8203125 255.30788811210041, -144.8203125 235.125 M-144.8203125 277.875 C-144.8203125 260.93261331738427, -144.8203125 243.99022663476853, -144.8203125 235.125" stroke="#9370DB" stroke-width="1.3" fill="none" stroke-dasharray="0 0"/></g><g style="" class="row-rect-odd"><path d="M-144.8203125 277.875 L144.8203125 277.875 L144.8203125 320.625 L-144.8203125 320.625" stroke="none" stroke-width="0" fill="hsl(240, 100%, 100%)"/><path d="M-144.8203125 277.875 C-49.41530756259944 277.875, 45.989697374801125 277.875, 144.8203125 277.875 M-144.8203125 277.875 C-67.44625874917135 277.875, 9.927795001657302 277.875, 144.8203125 277.875 M144.8203125 277.875 C144.8203125 293.8024833198691, 144.8203125 309.7299666397382, 144.8203125 320.625 M144.8203125 277.875 C144.8203125 290.83946431401563, 144.8203125 303.8039286280313, 144.8203125 320.625 M144.8203125 320.625 C37.23271232205772 320.625, -70.35488785588456 320.625, -144.8203125 320.625 M144.8203125 320.625 C65.22208996568453 320.625, -14.376132568630936 320.625, -144.8203125 320.625 M-144.8203125 320.625 C-144.8203125 309.1940491997364, -144.8203125 297.7630983994728, -144.8203125 277.875 M-144.8203125 320.625 C-144.8203125 310.09408246197455, -144.8203125 299.5631649239491, -144.8203125 277.875" stroke="#9370DB" stroke-width="1.3" fill="none" stroke-dasharray="0 0"/></g><g style="" class="row-rect-even"><path d="M-144.8203125 320.625 L144.8203125 320.625 L144.8203125 363.375 L-144.8203125 363.375" stroke="none" stroke-width="0" fill="hsl(240, 100%, 97.2745098039%)"/><path d="M-144.8203125 320.625 C-38.65178238821075 320.625, 67.5167477235785 320.625, 144.8203125 320.625 M-144.8203125 320.625 C-77.88453456846379 320.625, -10.948756636927584 320.625, 144.8203125 320.625 M144.8203125 320.625 C144.8203125 332.2268872185358, 144.8203125 343.8287744370716, 144.8203125 363.375 M144.8203125 320.625 C144.8203125 337.6048840023638, 144.8203125 354.5847680047276, 144.8203125 363.375 M144.8203125 363.375 C45.65638028611629 363.375, -53.50755192776742 363.375, -144.8203125 363.375 M144.8203125 363.375 C69.11048438337224 363.375, -6.599343733255523 363.375, -144.8203125 363.375 M-144.8203125 363.375 C-144.8203125 351.02557776400386, -144.8203125 338.67615552800777, -144.8203125 320.625 M-144.8203125 363.375 C-144.8203125 348.8065905523537, -144.8203125 334.2381811047074, -144.8203125 320.625" stroke="#9370DB" stroke-width="1.3" fill="none" stroke-dasharray="0 0"/></g><g class="label name" transform="translate(-27.671875, -354)" style=""><foreignObject width="55.34375" height="24"><div xmlns="http://www.w3.org/1999/xhtml" style="display: table-cell; white-space: nowrap; line-height: 1.5; max-width: 168px; text-align: start;"><span class="nodeLabel"><p>ALARMS</p></span></div></foreignObject></g><g class="label attribute-type" transform="translate(-132.3203125, -311.25)" style=""><foreignObject width="19.65625" height="24"><div xmlns="http://www.w3.org/1999/xhtml" style="display: table-cell; white-space: nowrap; line-height: 1.5; max-width: 117px; text-align: start;"><span class="nodeLabel"><p>int</p></span></div></foreignObject></g><g class="label attribute-name" transform="translate(-42.0078125, -311.25)" style=""><foreignObject width="13.484375" height="24"><div xmlns="http://www.w3.org/1999/xhtml" style="display: table-cell; white-space: nowrap; line-height: 1.5; max-width: 113px; text-align: start;"><span class="nodeLabel"><p>id</p></span></div></foreignObject></g><g class="label attribute-keys" transform="translate(114.1796875, -311.25)" style=""><foreignObject width="18.140625" height="24"><div xmlns="http://www.w3.org/1999/xhtml" style="display: table-cell; white-space: nowrap; line-height: 1.5; max-width: 122px; text-align: start;"><span class="nodeLabel"><p>PK</p></span></div></foreignObject></g><g class="label attribute-comment" transform="translate(157.3203125, -311.25)" style=""><foreignObject width="0" height="0"><div xmlns="http://www.w3.org/1999/xhtml" style="display: table-cell; white-space: nowrap; line-height: 1.5; max-width: 100px; text-align: start;"><span class="nodeLabel"></span></div></foreignObject></g><g class="label attribute-type" transform="translate(-132.3203125, -268.5)" style=""><foreignObject width="40.375" height="24"><div xmlns="http://www.w3.org/1999/xhtml" style="display: table-cell; white-space: nowrap; line-height: 1.5; max-width: 136px; text-align: start;"><span class="nodeLabel"><p>string</p></span></div></foreignObject></g><g class="label attribute-name" transform="translate(-42.0078125, -268.5)" style=""><foreignObject width="131.1875" height="24"><div xmlns="http://www.w3.org/1999/xhtml" style="display: table-cell; white-space: nowrap; line-height: 1.5; max-width: 217px; text-align: start;"><span class="nodeLabel"><p>external_alarm_id</p></span></div></foreignObject></g><g class="label attribute-keys" transform="translate(114.1796875, -268.5)" style=""><foreignObject width="0" height="0"><div xmlns="http://www.w3.org/1999/xhtml" style="display: table-cell; white-space: nowrap; line-height: 1.5; max-width: 100px; text-align: start;"><span class="nodeLabel"></span></div></foreignObject></g><g class="label attribute-comment" transform="translate(157.3203125, -268.5)" style=""><foreignObject width="0" height="0"><div xmlns="http://www.w3.org/1999/xhtml" style="display: table-cell; white-space: nowrap; line-height: 1.5; max-width: 100px; text-align: start;"><span class="nodeLabel"></span></div></foreignObject></g><g class="label attribute-type" transform="translate(-132.3203125, -225.75)" style=""><foreignObject width="40.375" height="24"><div xmlns="http://www.w3.org/1999/xhtml" style="display: table-cell; white-space: nowrap; line-height: 1.5; max-width: 136px; text-align: start;"><span class="nodeLabel"><p>string</p></span></div></foreignObject></g><g class="label attribute-name" transform="translate(-42.0078125, -225.75)" style=""><foreignObject width="104.265625" height="24"><div xmlns="http://www.w3.org/1999/xhtml" style="display: table-cell; white-space: nowrap; line-height: 1.5; max-width: 195px; text-align: start;"><span class="nodeLabel"><p>source_system</p></span></div></foreignObject></g><g class="label attribute-keys" transform="translate(114.1796875, -225.75)" style=""><foreignObject width="0" height="0"><div xmlns="http://www.w3.org/1999/xhtml" style="display: table-cell; white-space: nowrap; line-height: 1.5; max-width: 100px; text-align: start;"><span class="nodeLabel"></span></div></foreignObject></g><g class="label attribute-comment" transform="translate(157.3203125, -225.75)" style=""><foreignObject width="0" height="0"><div xmlns="http://www.w3.org/1999/xhtml" style="display: table-cell; white-space: nowrap; line-height: 1.5; max-width: 100px; text-align: start;"><span class="nodeLabel"></span></div></foreignObject></g><g class="label attribute-type" transform="translate(-132.3203125, -183)" style=""><foreignObject width="40.375" height="24"><div xmlns="http://www.w3.org/1999/xhtml" style="display: table-cell; white-space: nowrap; line-height: 1.5; max-width: 136px; text-align: start;"><span class="nodeLabel"><p>string</p></span></div></foreignObject></g><g class="label attribute-name" transform="translate(-42.0078125, -183)" style=""><foreignObject width="22.78125" height="24"><div xmlns="http://www.w3.org/1999/xhtml" style="display: table-cell; white-space: nowrap; line-height: 1.5; max-width: 121px; text-align: start;"><span class="nodeLabel"><p>tag</p></span></div></foreignObject></g><g class="label attribute-keys" transform="translate(114.1796875, -183)" style=""><foreignObject width="0" height="0"><div xmlns="http://www.w3.org/1999/xhtml" style="display: table-cell; white-space: nowrap; line-height: 1.5; max-width: 100px; text-align: start;"><span class="nodeLabel"></span></div></foreignObject></g><g class="label attribute-comment" transform="translate(157.3203125, -183)" style=""><foreignObject width="0" height="0"><div xmlns="http://www.w3.org/1999/xhtml" style="display: table-cell; white-space: nowrap; line-height: 1.5; max-width: 100px; text-align: start;"><span class="nodeLabel"></span></div></foreignObject></g><g class="label attribute-type" transform="translate(-132.3203125, -140.25)" style=""><foreignObject width="40.375" height="24"><div xmlns="http://www.w3.org/1999/xhtml" style="display: table-cell; white-space: nowrap; line-height: 1.5; max-width: 136px; text-align: start;"><span class="nodeLabel"><p>string</p></span></div></foreignObject></g><g class="label attribute-name" transform="translate(-42.0078125, -140.25)" style=""><foreignObject width="60.125" height="24"><div xmlns="http://www.w3.org/1999/xhtml" style="display: table-cell; white-space: nowrap; line-height: 1.5; max-width: 155px; text-align: start;"><span class="nodeLabel"><p>message</p></span></div></foreignObject></g><g class="label attribute-keys" transform="translate(114.1796875, -140.25)" style=""><foreignObject width="0" height="0"><div xmlns="http://www.w3.org/1999/xhtml" style="display: table-cell; white-space: nowrap; line-height: 1.5; max-width: 100px; text-align: start;"><span class="nodeLabel"></span></div></foreignObject></g><g class="label attribute-comment" transform="translate(157.3203125, -140.25)" style=""><foreignObject width="0" height="0"><div xmlns="http://www.w3.org/1999/xhtml" style="display: table-cell; white-space: nowrap; line-height: 1.5; max-width: 100px; text-align: start;"><span class="nodeLabel"></span></div></foreignObject></g><g class="label attribute-type" transform="translate(-132.3203125, -97.5)" style=""><foreignObject width="19.65625" height="24"><div xmlns="http://www.w3.org/1999/xhtml" style="display: table-cell; white-space: nowrap; line-height: 1.5; max-width: 117px; text-align: start;"><span class="nodeLabel"><p>int</p></span></div></foreignObject></g><g class="label attribute-name" transform="translate(-42.0078125, -97.5)" style=""><foreignObject width="53.296875" height="24"><div xmlns="http://www.w3.org/1999/xhtml" style="display: table-cell; white-space: nowrap; line-height: 1.5; max-width: 150px; text-align: start;"><span class="nodeLabel"><p>priority</p></span></div></foreignObject></g><g class="label attribute-keys" transform="translate(114.1796875, -97.5)" style=""><foreignObject width="0" height="0"><div xmlns="http://www.w3.org/1999/xhtml" style="display: table-cell; white-space: nowrap; line-height: 1.5; max-width: 100px; text-align: start;"><span class="nodeLabel"></span></div></foreignObject></g><g class="label attribute-comment" transform="translate(157.3203125, -97.5)" style=""><foreignObject width="0" height="0"><div xmlns="http://www.w3.org/1999/xhtml" style="display: table-cell; white-space: nowrap; line-height: 1.5; max-width: 100px; text-align: start;"><span class="nodeLabel"></span></div></foreignObject></g><g class="label attribute-type" transform="translate(-132.3203125, -54.75)" style=""><foreignObject width="40.375" height="24"><div xmlns="http://www.w3.org/1999/xhtml" style="display: table-cell; white-space: nowrap; line-height: 1.5; max-width: 136px; text-align: start;"><span class="nodeLabel"><p>string</p></span></div></foreignObject></g><g class="label attribute-name" transform="translate(-42.0078125, -54.75)" style=""><foreignObject width="69.453125" height="24"><div xmlns="http://www.w3.org/1999/xhtml" style="display: table-cell; white-space: nowrap; line-height: 1.5; max-width: 162px; text-align: start;"><span class="nodeLabel"><p>criticality</p></span></div></foreignObject></g><g class="label attribute-keys" transform="translate(114.1796875, -54.75)" style=""><foreignObject width="0" height="0"><div xmlns="http://www.w3.org/1999/xhtml" style="display: table-cell; white-space: nowrap; line-height: 1.5; max-width: 100px; text-align: start;"><span class="nodeLabel"></span></div></foreignObject></g><g class="label attribute-comment" transform="translate(157.3203125, -54.75)" style=""><foreignObject width="0" height="0"><div xmlns="http://www.w3.org/1999/xhtml" style="display: table-cell; white-space: nowrap; line-height: 1.5; max-width: 100px; text-align: start;"><span class="nodeLabel"></span></div></foreignObject></g><g class="label attribute-type" transform="translate(-132.3203125, -12)" style=""><foreignObject width="40.375" height="24"><div xmlns="http://www.w3.org/1999/xhtml" style="display: table-cell; white-space: nowrap; line-height: 1.5; max-width: 136px; text-align: start;"><span class="nodeLabel"><p>string</p></span></div></foreignObject></g><g class="label attribute-name" transform="translate(-42.0078125, -12)" style=""><foreignObject width="36.296875" height="24"><div xmlns="http://www.w3.org/1999/xhtml" style="display: table-cell; white-space: nowrap; line-height: 1.5; max-width: 129px; text-align: start;"><span class="nodeLabel"><p>state</p></span></div></foreignObject></g><g class="label attribute-keys" transform="translate(114.1796875, -12)" style=""><foreignObject width="0" height="0"><div xmlns="http://www.w3.org/1999/xhtml" style="display: table-cell; white-space: nowrap; line-height: 1.5; max-width: 100px; text-align: start;"><span class="nodeLabel"></span></div></foreignObject></g><g class="label attribute-comment" transform="translate(157.3203125, -12)" style=""><foreignObject width="0" height="0"><div xmlns="http://www.w3.org/1999/xhtml" style="display: table-cell; white-space: nowrap; line-height: 1.5; max-width: 100px; text-align: start;"><span class="nodeLabel"></span></div></foreignObject></g><g class="label attribute-type" transform="translate(-132.3203125, 30.75)" style=""><foreignObject width="40.375" height="24"><div xmlns="http://www.w3.org/1999/xhtml" style="display: table-cell; white-space: nowrap; line-height: 1.5; max-width: 136px; text-align: start;"><span class="nodeLabel"><p>string</p></span></div></foreignObject></g><g class="label attribute-name" transform="translate(-42.0078125, 30.75)" style=""><foreignObject width="37.125" height="24"><div xmlns="http://www.w3.org/1999/xhtml" style="display: table-cell; white-space: nowrap; line-height: 1.5; max-width: 134px; text-align: start;"><span class="nodeLabel"><p>plant</p></span></div></foreignObject></g><g class="label attribute-keys" transform="translate(114.1796875, 30.75)" style=""><foreignObject width="0" height="0"><div xmlns="http://www.w3.org/1999/xhtml" style="display: table-cell; white-space: nowrap; line-height: 1.5; max-width: 100px; text-align: start;"><span class="nodeLabel"></span></div></foreignObject></g><g class="label attribute-comment" transform="translate(157.3203125, 30.75)" style=""><foreignObject width="0" height="0"><div xmlns="http://www.w3.org/1999/xhtml" style="display: table-cell; white-space: nowrap; line-height: 1.5; max-width: 100px; text-align: start;"><span class="nodeLabel"></span></div></foreignObject></g><g class="label attribute-type" transform="translate(-132.3203125, 73.5)" style=""><foreignObject width="40.375" height="24"><div xmlns="http://www.w3.org/1999/xhtml" style="display: table-cell; white-space: nowrap; line-height: 1.5; max-width: 136px; text-align: start;"><span class="nodeLabel"><p>string</p></span></div></foreignObject></g><g class="label attribute-name" transform="translate(-42.0078125, 73.5)" style=""><foreignObject width="31.765625" height="24"><div xmlns="http://www.w3.org/1999/xhtml" style="display: table-cell; white-space: nowrap; line-height: 1.5; max-width: 128px; text-align: start;"><span class="nodeLabel"><p>area</p></span></div></foreignObject></g><g class="label attribute-keys" transform="translate(114.1796875, 73.5)" style=""><foreignObject width="0" height="0"><div xmlns="http://www.w3.org/1999/xhtml" style="display: table-cell; white-space: nowrap; line-height: 1.5; max-width: 100px; text-align: start;"><span class="nodeLabel"></span></div></foreignObject></g><g class="label attribute-comment" transform="translate(157.3203125, 73.5)" style=""><foreignObject width="0" height="0"><div xmlns="http://www.w3.org/1999/xhtml" style="display: table-cell; white-space: nowrap; line-height: 1.5; max-width: 100px; text-align: start;"><span class="nodeLabel"></span></div></foreignObject></g><g class="label attribute-type" transform="translate(-132.3203125, 116.25)" style=""><foreignObject width="40.375" height="24"><div xmlns="http://www.w3.org/1999/xhtml" style="display: table-cell; white-space: nowrap; line-height: 1.5; max-width: 136px; text-align: start;"><span class="nodeLabel"><p>string</p></span></div></foreignObject></g><g class="label attribute-name" transform="translate(-42.0078125, 116.25)" style=""><foreignObject width="76.953125" height="24"><div xmlns="http://www.w3.org/1999/xhtml" style="display: table-cell; white-space: nowrap; line-height: 1.5; max-width: 168px; text-align: start;"><span class="nodeLabel"><p>equipment</p></span></div></foreignObject></g><g class="label attribute-keys" transform="translate(114.1796875, 116.25)" style=""><foreignObject width="0" height="0"><div xmlns="http://www.w3.org/1999/xhtml" style="display: table-cell; white-space: nowrap; line-height: 1.5; max-width: 100px; text-align: start;"><span class="nodeLabel"></span></div></foreignObject></g><g class="label attribute-comment" transform="translate(157.3203125, 116.25)" style=""><foreignObject width="0" height="0"><div xmlns="http://www.w3.org/1999/xhtml" style="display: table-cell; white-space: nowrap; line-height: 1.5; max-width: 100px; text-align: start;"><span class="nodeLabel"></span></div></foreignObject></g><g class="label attribute-type" transform="translate(-132.3203125, 159)" style=""><foreignObject width="65.3125" height="24"><div xmlns="http://www.w3.org/1999/xhtml" style="display: table-cell; white-space: nowrap; line-height: 1.5; max-width: 155px; text-align: start;"><span class="nodeLabel"><p>datetime</p></span></div></foreignObject></g><g class="label attribute-name" transform="translate(-42.0078125, 159)" style=""><foreignObject width="81.6875" height="24"><div xmlns="http://www.w3.org/1999/xhtml" style="display: table-cell; white-space: nowrap; line-height: 1.5; max-width: 171px; text-align: start;"><span class="nodeLabel"><p>event_time</p></span></div></foreignObject></g><g class="label attribute-keys" transform="translate(114.1796875, 159)" style=""><foreignObject width="0" height="0"><div xmlns="http://www.w3.org/1999/xhtml" style="display: table-cell; white-space: nowrap; line-height: 1.5; max-width: 100px; text-align: start;"><span class="nodeLabel"></span></div></foreignObject></g><g class="label attribute-comment" transform="translate(157.3203125, 159)" style=""><foreignObject width="0" height="0"><div xmlns="http://www.w3.org/1999/xhtml" style="display: table-cell; white-space: nowrap; line-height: 1.5; max-width: 100px; text-align: start;"><span class="nodeLabel"></span></div></foreignObject></g><g class="label attribute-type" transform="translate(-132.3203125, 201.75)" style=""><foreignObject width="65.3125" height="24"><div xmlns="http://www.w3.org/1999/xhtml" style="display: table-cell; white-space: nowrap; line-height: 1.5; max-width: 155px; text-align: start;"><span class="nodeLabel"><p>datetime</p></span></div></foreignObject></g><g class="label attribute-name" transform="translate(-42.0078125, 201.75)" style=""><foreignObject width="65.703125" height="24"><div xmlns="http://www.w3.org/1999/xhtml" style="display: table-cell; white-space: nowrap; line-height: 1.5; max-width: 159px; text-align: start;"><span class="nodeLabel"><p>ack_time</p></span></div></foreignObject></g><g class="label attribute-keys" transform="translate(114.1796875, 201.75)" style=""><foreignObject width="0" height="0"><div xmlns="http://www.w3.org/1999/xhtml" style="display: table-cell; white-space: nowrap; line-height: 1.5; max-width: 100px; text-align: start;"><span class="nodeLabel"></span></div></foreignObject></g><g class="label attribute-comment" transform="translate(157.3203125, 201.75)" style=""><foreignObject width="0" height="0"><div xmlns="http://www.w3.org/1999/xhtml" style="display: table-cell; white-space: nowrap; line-height: 1.5; max-width: 100px; text-align: start;"><span class="nodeLabel"></span></div></foreignObject></g><g class="label attribute-type" transform="translate(-132.3203125, 244.5)" style=""><foreignObject width="65.3125" height="24"><div xmlns="http://www.w3.org/1999/xhtml" style="display: table-cell; white-space: nowrap; line-height: 1.5; max-width: 155px; text-align: start;"><span class="nodeLabel"><p>datetime</p></span></div></foreignObject></g><g class="label attribute-name" transform="translate(-42.0078125, 244.5)" style=""><foreignObject width="77.296875" height="24"><div xmlns="http://www.w3.org/1999/xhtml" style="display: table-cell; white-space: nowrap; line-height: 1.5; max-width: 168px; text-align: start;"><span class="nodeLabel"><p>clear_time</p></span></div></foreignObject></g><g class="label attribute-keys" transform="translate(114.1796875, 244.5)" style=""><foreignObject width="0" height="0"><div xmlns="http://www.w3.org/1999/xhtml" style="display: table-cell; white-space: nowrap; line-height: 1.5; max-width: 100px; text-align: start;"><span class="nodeLabel"></span></div></foreignObject></g><g class="label attribute-comment" transform="translate(157.3203125, 244.5)" style=""><foreignObject width="0" height="0"><div xmlns="http://www.w3.org/1999/xhtml" style="display: table-cell; white-space: nowrap; line-height: 1.5; max-width: 100px; text-align: start;"><span class="nodeLabel"></span></div></foreignObject></g><g class="label attribute-type" transform="translate(-132.3203125, 287.25)" style=""><foreignObject width="65.3125" height="24"><div xmlns="http://www.w3.org/1999/xhtml" style="display: table-cell; white-space: nowrap; line-height: 1.5; max-width: 155px; text-align: start;"><span class="nodeLabel"><p>datetime</p></span></div></foreignObject></g><g class="label attribute-name" transform="translate(-42.0078125, 287.25)" style=""><foreignObject width="78.40625" height="24"><div xmlns="http://www.w3.org/1999/xhtml" style="display: table-cell; white-space: nowrap; line-height: 1.5; max-width: 166px; text-align: start;"><span class="nodeLabel"><p>created_at</p></span></div></foreignObject></g><g class="label attribute-keys" transform="translate(114.1796875, 287.25)" style=""><foreignObject width="0" height="0"><div xmlns="http://www.w3.org/1999/xhtml" style="display: table-cell; white-space: nowrap; line-height: 1.5; max-width: 100px; text-align: start;"><span class="nodeLabel"></span></div></foreignObject></g><g class="label attribute-comment" transform="translate(157.3203125, 287.25)" style=""><foreignObject width="0" height="0"><div xmlns="http://www.w3.org/1999/xhtml" style="display: table-cell; white-space: nowrap; line-height: 1.5; max-width: 100px; text-align: start;"><span class="nodeLabel"></span></div></foreignObject></g><g class="label attribute-type" transform="translate(-132.3203125, 330)" style=""><foreignObject width="65.3125" height="24"><div xmlns="http://www.w3.org/1999/xhtml" style="display: table-cell; white-space: nowrap; line-height: 1.5; max-width: 155px; text-align: start;"><span class="nodeLabel"><p>datetime</p></span></div></foreignObject></g><g class="label attribute-name" transform="translate(-42.0078125, 330)" style=""><foreignObject width="82.109375" height="24"><div xmlns="http://www.w3.org/1999/xhtml" style="display: table-cell; white-space: nowrap; line-height: 1.5; max-width: 172px; text-align: start;"><span class="nodeLabel"><p>updated_at</p></span></div></foreignObject></g><g class="label attribute-keys" transform="translate(114.1796875, 330)" style=""><foreignObject width="0" height="0"><div xmlns="http://www.w3.org/1999/xhtml" style="display: table-cell; white-space: nowrap; line-height: 1.5; max-width: 100px; text-align: start;"><span class="nodeLabel"></span></div></foreignObject></g><g class="label attribute-comment" transform="translate(157.3203125, 330)" style=""><foreignObject width="0" height="0"><div xmlns="http://www.w3.org/1999/xhtml" style="display: table-cell; white-space: nowrap; line-height: 1.5; max-width: 100px; text-align: start;"><span class="nodeLabel"></span></div></foreignObject></g><g class="divider"><path d="M-144.8203125 -320.62505 L-144.8203125 -320.62495 L144.8203125 -320.62495 L144.8203125 -320.62505" stroke="none" stroke-width="0" fill="#ECECFF" fill-rule="evenodd"/><path d="M-144.8203125 -320.62505 C-144.8203125 -320.62502123170765, -144.8203125 -320.6249924634153, -144.8203125 -320.62495 M-144.8203125 -320.62505 C-144.8203125 -320.6250249595666, -144.8203125 -320.62499991913313, -144.8203125 -320.62495 M-144.8203125 -320.62495 C-78.90987368917737 -320.62495, -12.999434878354748 -320.62495, 144.8203125 -320.62495 M-144.8203125 -320.62495 C-56.065404863809945 -320.62495, 32.68950277238011 -320.62495, 144.8203125 -320.62495 M144.8203125 -320.62495 C144.8203125 -320.62498853232626, 144.8203125 -320.6250270646525, 144.8203125 -320.62505 M144.8203125 -320.62495 C144.8203125 -320.624972021018, 144.8203125 -320.62499404203595, 144.8203125 -320.62505 M144.8203125 -320.62505 C50.83913520011339 -320.62505, -43.14204209977322 -320.62505, -144.8203125 -320.62505 M144.8203125 -320.62505 C63.82072411365331 -320.62505, -17.178864272693374 -320.62505, -144.8203125 -320.62505" stroke="#9370DB" stroke-width="1.3" fill="none" stroke-dasharray="0 0"/></g><g class="divider"><path d="M-54.5078625 -320.625 L-54.5077625 -320.625 L-54.5077625 363.375 L-54.5078625 363.375" stroke="none" stroke-width="0" fill="#ECECFF" fill-rule="evenodd"/><path d="M-54.5078625 -320.625 C-54.5078382834241 -320.625, -54.5078140668482 -320.625, -54.5077625 -320.625 M-54.5078625 -320.625 C-54.507823805504515 -320.625, -54.50778511100903 -320.625, -54.5077625 -320.625 M-54.5077625 -320.625 C-54.5077625 -53.0613889407154, -54.5077625 214.5022221185692, -54.5077625 363.375 M-54.5077625 -320.625 C-54.5077625 -104.5417244654399, -54.5077625 111.5415510691202, -54.5077625 363.375 M-54.5077625 363.375 C-54.50779357283767 363.375, -54.50782464567534 363.375, -54.5078625 363.375 M-54.5077625 363.375 C-54.50779474808972 363.375, -54.507826996179446 363.375, -54.5078625 363.375 M-54.5078625 363.375 C-54.5078625 140.6661175562362, -54.5078625 -82.0427648875276, -54.5078625 -320.625 M-54.5078625 363.375 C-54.5078625 217.84138345814145, -54.5078625 72.3077669162829, -54.5078625 -320.625" stroke="#9370DB" stroke-width="1.3" fill="none" stroke-dasharray="0 0"/></g><g class="divider"><path d="M101.6796375 -320.625 L101.6797375 -320.625 L101.6797375 363.375 L101.6796375 363.375" stroke="none" stroke-width="0" fill="#ECECFF" fill-rule="evenodd"/><path d="M101.6796375 -320.625 C101.67966799722048 -320.625, 101.67969849444094 -320.625, 101.6797375 -320.625 M101.6796375 -320.625 C101.67966581964967 -320.625, 101.67969413929936 -320.625, 101.6797375 -320.625 M101.6797375 -320.625 C101.6797375 -63.68251533744734, 101.6797375 193.25996932510532, 101.6797375 363.375 M101.6797375 -320.625 C101.6797375 -67.05631058706834, 101.6797375 186.51237882586332, 101.6797375 363.375 M101.6797375 363.375 C101.67970287553452 363.375, 101.67966825106903 363.375, 101.6796375 363.375 M101.6797375 363.375 C101.67969754387718 363.375, 101.67965758775435 363.375, 101.6796375 363.375 M101.6796375 363.375 C101.6796375 114.12156792013536, 101.6796375 -135.13186415972928, 101.6796375 -320.625 M101.6796375 363.375 C101.6796375 151.17035049788336, 101.6796375 -61.034299004233276, 101.6796375 -320.625" stroke="#9370DB" stroke-width="1.3" fill="none" stroke-dasharray="0 0"/></g><g class="divider"><path d="M-144.8203125 -320.62505 L-144.8203125 -320.62495 L144.8203125 -320.62495 L144.8203125 -320.62505" stroke="none" stroke-width="0" fill="#ECECFF" fill-rule="evenodd"/><path d="M-144.8203125 -320.62505 C-144.8203125 -320.6250106490203, -144.8203125 -320.6249712980406, -144.8203125 -320.62495 M-144.8203125 -320.62505 C-144.8203125 -320.6250168009506, -144.8203125 -320.6249836019013, -144.8203125 -320.62495 M-144.8203125 -320.62495 C-29.825220968519588 -320.62495, 85.16987056296082 -320.62495, 144.8203125 -320.62495 M-144.8203125 -320.62495 C-66.51578929651393 -320.62495, 11.78873390697214 -320.62495, 144.8203125 -320.62495 M144.8203125 -320.62495 C144.8203125 -320.6249763255355, 144.8203125 -320.62500265107093, 144.8203125 -320.62505 M144.8203125 -320.62495 C144.8203125 -320.62498904733354, 144.8203125 -320.62502809466713, 144.8203125 -320.62505 M144.8203125 -320.62505 C55.27327987931197 -320.62505, -34.27375274137606 -320.62505, -144.8203125 -320.62505 M144.8203125 -320.62505 C57.9868713103716 -320.62505, -28.846569879256805 -320.62505, -144.8203125 -320.62505" stroke="#9370DB" stroke-width="1.3" fill="none" stroke-dasharray="0 0"/></g></g></g></g></g><defs><filter id="my-svg-drop-shadow" height="130%" width="130%"><feDropShadow dx="4" dy="4" stdDeviation="0" flood-opacity="0.06" flood-color="#000000"/></filter></defs><defs><filter id="my-svg-drop-shadow-small" height="150%" width="150%"><feDropShadow dx="2" dy="2" stdDeviation="0" flood-opacity="0.06" flood-color="#000000"/></filter></defs></svg>